%FSLAX44Y44*%
%MOMM*%
G71*
G01*
G75*
G04 Layer_Physical_Order=4*
G04 Layer_Color=16711680*
%ADD10C,0.1500*%
G04:AMPARAMS|DCode=11|XSize=0.6mm|YSize=0.5mm|CornerRadius=0.05mm|HoleSize=0mm|Usage=FLASHONLY|Rotation=0.000|XOffset=0mm|YOffset=0mm|HoleType=Round|Shape=RoundedRectangle|*
%AMROUNDEDRECTD11*
21,1,0.6000,0.4000,0,0,0.0*
21,1,0.5000,0.5000,0,0,0.0*
1,1,0.1000,0.2500,-0.2000*
1,1,0.1000,-0.2500,-0.2000*
1,1,0.1000,-0.2500,0.2000*
1,1,0.1000,0.2500,0.2000*
%
%ADD11ROUNDEDRECTD11*%
G04:AMPARAMS|DCode=12|XSize=0.6mm|YSize=0.5mm|CornerRadius=0.05mm|HoleSize=0mm|Usage=FLASHONLY|Rotation=270.000|XOffset=0mm|YOffset=0mm|HoleType=Round|Shape=RoundedRectangle|*
%AMROUNDEDRECTD12*
21,1,0.6000,0.4000,0,0,270.0*
21,1,0.5000,0.5000,0,0,270.0*
1,1,0.1000,-0.2000,-0.2500*
1,1,0.1000,-0.2000,0.2500*
1,1,0.1000,0.2000,0.2500*
1,1,0.1000,0.2000,-0.2500*
%
%ADD12ROUNDEDRECTD12*%
%ADD13O,0.9500X0.4000*%
G04:AMPARAMS|DCode=14|XSize=0.7mm|YSize=0.55mm|CornerRadius=0.055mm|HoleSize=0mm|Usage=FLASHONLY|Rotation=180.000|XOffset=0mm|YOffset=0mm|HoleType=Round|Shape=RoundedRectangle|*
%AMROUNDEDRECTD14*
21,1,0.7000,0.4400,0,0,180.0*
21,1,0.5900,0.5500,0,0,180.0*
1,1,0.1100,-0.2950,0.2200*
1,1,0.1100,0.2950,0.2200*
1,1,0.1100,0.2950,-0.2200*
1,1,0.1100,-0.2950,-0.2200*
%
%ADD14ROUNDEDRECTD14*%
G04:AMPARAMS|DCode=15|XSize=0.4mm|YSize=0.37mm|CornerRadius=0.037mm|HoleSize=0mm|Usage=FLASHONLY|Rotation=180.000|XOffset=0mm|YOffset=0mm|HoleType=Round|Shape=RoundedRectangle|*
%AMROUNDEDRECTD15*
21,1,0.4000,0.2960,0,0,180.0*
21,1,0.3260,0.3700,0,0,180.0*
1,1,0.0740,-0.1630,0.1480*
1,1,0.0740,0.1630,0.1480*
1,1,0.0740,0.1630,-0.1480*
1,1,0.0740,-0.1630,-0.1480*
%
%ADD15ROUNDEDRECTD15*%
G04:AMPARAMS|DCode=16|XSize=0.4mm|YSize=0.37mm|CornerRadius=0.037mm|HoleSize=0mm|Usage=FLASHONLY|Rotation=270.000|XOffset=0mm|YOffset=0mm|HoleType=Round|Shape=RoundedRectangle|*
%AMROUNDEDRECTD16*
21,1,0.4000,0.2960,0,0,270.0*
21,1,0.3260,0.3700,0,0,270.0*
1,1,0.0740,-0.1480,-0.1630*
1,1,0.0740,-0.1480,0.1630*
1,1,0.0740,0.1480,0.1630*
1,1,0.0740,0.1480,-0.1630*
%
%ADD16ROUNDEDRECTD16*%
G04:AMPARAMS|DCode=17|XSize=0.93mm|YSize=0.89mm|CornerRadius=0.089mm|HoleSize=0mm|Usage=FLASHONLY|Rotation=90.000|XOffset=0mm|YOffset=0mm|HoleType=Round|Shape=RoundedRectangle|*
%AMROUNDEDRECTD17*
21,1,0.9300,0.7120,0,0,90.0*
21,1,0.7520,0.8900,0,0,90.0*
1,1,0.1780,0.3560,0.3760*
1,1,0.1780,0.3560,-0.3760*
1,1,0.1780,-0.3560,-0.3760*
1,1,0.1780,-0.3560,0.3760*
%
%ADD17ROUNDEDRECTD17*%
%ADD18O,1.6500X0.3000*%
%ADD19O,0.3000X1.6500*%
%ADD20R,0.5400X0.7400*%
G04:AMPARAMS|DCode=21|XSize=0.7mm|YSize=0.55mm|CornerRadius=0.055mm|HoleSize=0mm|Usage=FLASHONLY|Rotation=90.000|XOffset=0mm|YOffset=0mm|HoleType=Round|Shape=RoundedRectangle|*
%AMROUNDEDRECTD21*
21,1,0.7000,0.4400,0,0,90.0*
21,1,0.5900,0.5500,0,0,90.0*
1,1,0.1100,0.2200,0.2950*
1,1,0.1100,0.2200,-0.2950*
1,1,0.1100,-0.2200,-0.2950*
1,1,0.1100,-0.2200,0.2950*
%
%ADD21ROUNDEDRECTD21*%
G04:AMPARAMS|DCode=22|XSize=1.3mm|YSize=3.5mm|CornerRadius=0.325mm|HoleSize=0mm|Usage=FLASHONLY|Rotation=180.000|XOffset=0mm|YOffset=0mm|HoleType=Round|Shape=RoundedRectangle|*
%AMROUNDEDRECTD22*
21,1,1.3000,2.8500,0,0,180.0*
21,1,0.6500,3.5000,0,0,180.0*
1,1,0.6500,-0.3250,1.4250*
1,1,0.6500,0.3250,1.4250*
1,1,0.6500,0.3250,-1.4250*
1,1,0.6500,-0.3250,-1.4250*
%
%ADD22ROUNDEDRECTD22*%
G04:AMPARAMS|DCode=23|XSize=0.3mm|YSize=0.6mm|CornerRadius=0.0495mm|HoleSize=0mm|Usage=FLASHONLY|Rotation=0.000|XOffset=0mm|YOffset=0mm|HoleType=Round|Shape=RoundedRectangle|*
%AMROUNDEDRECTD23*
21,1,0.3000,0.5010,0,0,0.0*
21,1,0.2010,0.6000,0,0,0.0*
1,1,0.0990,0.1005,-0.2505*
1,1,0.0990,-0.1005,-0.2505*
1,1,0.0990,-0.1005,0.2505*
1,1,0.0990,0.1005,0.2505*
%
%ADD23ROUNDEDRECTD23*%
G04:AMPARAMS|DCode=24|XSize=0.3mm|YSize=0.6mm|CornerRadius=0.0495mm|HoleSize=0mm|Usage=FLASHONLY|Rotation=270.000|XOffset=0mm|YOffset=0mm|HoleType=Round|Shape=RoundedRectangle|*
%AMROUNDEDRECTD24*
21,1,0.3000,0.5010,0,0,270.0*
21,1,0.2010,0.6000,0,0,270.0*
1,1,0.0990,-0.2505,-0.1005*
1,1,0.0990,-0.2505,0.1005*
1,1,0.0990,0.2505,0.1005*
1,1,0.0990,0.2505,-0.1005*
%
%ADD24ROUNDEDRECTD24*%
%ADD25R,2.2500X0.9000*%
G04:AMPARAMS|DCode=26|XSize=1.38mm|YSize=1.05mm|CornerRadius=0.105mm|HoleSize=0mm|Usage=FLASHONLY|Rotation=180.000|XOffset=0mm|YOffset=0mm|HoleType=Round|Shape=RoundedRectangle|*
%AMROUNDEDRECTD26*
21,1,1.3800,0.8400,0,0,180.0*
21,1,1.1700,1.0500,0,0,180.0*
1,1,0.2100,-0.5850,0.4200*
1,1,0.2100,0.5850,0.4200*
1,1,0.2100,0.5850,-0.4200*
1,1,0.2100,-0.5850,-0.4200*
%
%ADD26ROUNDEDRECTD26*%
%ADD27O,0.7600X1.6000*%
%ADD28O,0.6000X1.6000*%
G04:AMPARAMS|DCode=29|XSize=0.9mm|YSize=0.8mm|CornerRadius=0.08mm|HoleSize=0mm|Usage=FLASHONLY|Rotation=180.000|XOffset=0mm|YOffset=0mm|HoleType=Round|Shape=RoundedRectangle|*
%AMROUNDEDRECTD29*
21,1,0.9000,0.6400,0,0,180.0*
21,1,0.7400,0.8000,0,0,180.0*
1,1,0.1600,-0.3700,0.3200*
1,1,0.1600,0.3700,0.3200*
1,1,0.1600,0.3700,-0.3200*
1,1,0.1600,-0.3700,-0.3200*
%
%ADD29ROUNDEDRECTD29*%
%ADD30O,0.6000X1.4000*%
G04:AMPARAMS|DCode=31|XSize=1mm|YSize=1.4mm|CornerRadius=0.25mm|HoleSize=0mm|Usage=FLASHONLY|Rotation=180.000|XOffset=0mm|YOffset=0mm|HoleType=Round|Shape=RoundedRectangle|*
%AMROUNDEDRECTD31*
21,1,1.0000,0.9000,0,0,180.0*
21,1,0.5000,1.4000,0,0,180.0*
1,1,0.5000,-0.2500,0.4500*
1,1,0.5000,0.2500,0.4500*
1,1,0.5000,0.2500,-0.4500*
1,1,0.5000,-0.2500,-0.4500*
%
%ADD31ROUNDEDRECTD31*%
G04:AMPARAMS|DCode=32|XSize=1mm|YSize=1mm|CornerRadius=0.25mm|HoleSize=0mm|Usage=FLASHONLY|Rotation=180.000|XOffset=0mm|YOffset=0mm|HoleType=Round|Shape=RoundedRectangle|*
%AMROUNDEDRECTD32*
21,1,1.0000,0.5000,0,0,180.0*
21,1,0.5000,1.0000,0,0,180.0*
1,1,0.5000,-0.2500,0.2500*
1,1,0.5000,0.2500,0.2500*
1,1,0.5000,0.2500,-0.2500*
1,1,0.5000,-0.2500,-0.2500*
%
%ADD32ROUNDEDRECTD32*%
%ADD33R,4.4500X4.4500*%
%ADD34O,0.8200X0.2700*%
%ADD35O,0.2700X0.8200*%
G04:AMPARAMS|DCode=36|XSize=0.9mm|YSize=1mm|CornerRadius=0.09mm|HoleSize=0mm|Usage=FLASHONLY|Rotation=180.000|XOffset=0mm|YOffset=0mm|HoleType=Round|Shape=RoundedRectangle|*
%AMROUNDEDRECTD36*
21,1,0.9000,0.8200,0,0,180.0*
21,1,0.7200,1.0000,0,0,180.0*
1,1,0.1800,-0.3600,0.4100*
1,1,0.1800,0.3600,0.4100*
1,1,0.1800,0.3600,-0.4100*
1,1,0.1800,-0.3600,-0.4100*
%
%ADD36ROUNDEDRECTD36*%
G04:AMPARAMS|DCode=37|XSize=1.7mm|YSize=0.55mm|CornerRadius=0.055mm|HoleSize=0mm|Usage=FLASHONLY|Rotation=180.000|XOffset=0mm|YOffset=0mm|HoleType=Round|Shape=RoundedRectangle|*
%AMROUNDEDRECTD37*
21,1,1.7000,0.4400,0,0,180.0*
21,1,1.5900,0.5500,0,0,180.0*
1,1,0.1100,-0.7950,0.2200*
1,1,0.1100,0.7950,0.2200*
1,1,0.1100,0.7950,-0.2200*
1,1,0.1100,-0.7950,-0.2200*
%
%ADD37ROUNDEDRECTD37*%
%ADD38C,1.0000*%
%ADD39O,0.4000X1.3500*%
G04:AMPARAMS|DCode=40|XSize=2.3mm|YSize=1.9mm|CornerRadius=0.19mm|HoleSize=0mm|Usage=FLASHONLY|Rotation=180.000|XOffset=0mm|YOffset=0mm|HoleType=Round|Shape=RoundedRectangle|*
%AMROUNDEDRECTD40*
21,1,2.3000,1.5200,0,0,180.0*
21,1,1.9200,1.9000,0,0,180.0*
1,1,0.3800,-0.9600,0.7600*
1,1,0.3800,0.9600,0.7600*
1,1,0.3800,0.9600,-0.7600*
1,1,0.3800,-0.9600,-0.7600*
%
%ADD40ROUNDEDRECTD40*%
%ADD41R,1.8000X1.9000*%
G04:AMPARAMS|DCode=42|XSize=1.55mm|YSize=1.35mm|CornerRadius=0.135mm|HoleSize=0mm|Usage=FLASHONLY|Rotation=180.000|XOffset=0mm|YOffset=0mm|HoleType=Round|Shape=RoundedRectangle|*
%AMROUNDEDRECTD42*
21,1,1.5500,1.0800,0,0,180.0*
21,1,1.2800,1.3500,0,0,180.0*
1,1,0.2700,-0.6400,0.5400*
1,1,0.2700,0.6400,0.5400*
1,1,0.2700,0.6400,-0.5400*
1,1,0.2700,-0.6400,-0.5400*
%
%ADD42ROUNDEDRECTD42*%
G04:AMPARAMS|DCode=43|XSize=1.8mm|YSize=1.17mm|CornerRadius=0.117mm|HoleSize=0mm|Usage=FLASHONLY|Rotation=90.000|XOffset=0mm|YOffset=0mm|HoleType=Round|Shape=RoundedRectangle|*
%AMROUNDEDRECTD43*
21,1,1.8000,0.9360,0,0,90.0*
21,1,1.5660,1.1700,0,0,90.0*
1,1,0.2340,0.4680,0.7830*
1,1,0.2340,0.4680,-0.7830*
1,1,0.2340,-0.4680,-0.7830*
1,1,0.2340,-0.4680,0.7830*
%
%ADD43ROUNDEDRECTD43*%
G04:AMPARAMS|DCode=44|XSize=0.75mm|YSize=1.1mm|CornerRadius=0.075mm|HoleSize=0mm|Usage=FLASHONLY|Rotation=180.000|XOffset=0mm|YOffset=0mm|HoleType=Round|Shape=RoundedRectangle|*
%AMROUNDEDRECTD44*
21,1,0.7500,0.9500,0,0,180.0*
21,1,0.6000,1.1000,0,0,180.0*
1,1,0.1500,-0.3000,0.4750*
1,1,0.1500,0.3000,0.4750*
1,1,0.1500,0.3000,-0.4750*
1,1,0.1500,-0.3000,-0.4750*
%
%ADD44ROUNDEDRECTD44*%
G04:AMPARAMS|DCode=45|XSize=1.2mm|YSize=1mm|CornerRadius=0.1mm|HoleSize=0mm|Usage=FLASHONLY|Rotation=180.000|XOffset=0mm|YOffset=0mm|HoleType=Round|Shape=RoundedRectangle|*
%AMROUNDEDRECTD45*
21,1,1.2000,0.8000,0,0,180.0*
21,1,1.0000,1.0000,0,0,180.0*
1,1,0.2000,-0.5000,0.4000*
1,1,0.2000,0.5000,0.4000*
1,1,0.2000,0.5000,-0.4000*
1,1,0.2000,-0.5000,-0.4000*
%
%ADD45ROUNDEDRECTD45*%
G04:AMPARAMS|DCode=46|XSize=1.9mm|YSize=1.35mm|CornerRadius=0.135mm|HoleSize=0mm|Usage=FLASHONLY|Rotation=180.000|XOffset=0mm|YOffset=0mm|HoleType=Round|Shape=RoundedRectangle|*
%AMROUNDEDRECTD46*
21,1,1.9000,1.0800,0,0,180.0*
21,1,1.6300,1.3500,0,0,180.0*
1,1,0.2700,-0.8150,0.5400*
1,1,0.2700,0.8150,0.5400*
1,1,0.2700,0.8150,-0.5400*
1,1,0.2700,-0.8150,-0.5400*
%
%ADD46ROUNDEDRECTD46*%
G04:AMPARAMS|DCode=47|XSize=2mm|YSize=1.1mm|CornerRadius=0.11mm|HoleSize=0mm|Usage=FLASHONLY|Rotation=90.000|XOffset=0mm|YOffset=0mm|HoleType=Round|Shape=RoundedRectangle|*
%AMROUNDEDRECTD47*
21,1,2.0000,0.8800,0,0,90.0*
21,1,1.7800,1.1000,0,0,90.0*
1,1,0.2200,0.4400,0.8900*
1,1,0.2200,0.4400,-0.8900*
1,1,0.2200,-0.4400,-0.8900*
1,1,0.2200,-0.4400,0.8900*
%
%ADD47ROUNDEDRECTD47*%
G04:AMPARAMS|DCode=48|XSize=0.8mm|YSize=0.8mm|CornerRadius=0.08mm|HoleSize=0mm|Usage=FLASHONLY|Rotation=90.000|XOffset=0mm|YOffset=0mm|HoleType=Round|Shape=RoundedRectangle|*
%AMROUNDEDRECTD48*
21,1,0.8000,0.6400,0,0,90.0*
21,1,0.6400,0.8000,0,0,90.0*
1,1,0.1600,0.3200,0.3200*
1,1,0.1600,0.3200,-0.3200*
1,1,0.1600,-0.3200,-0.3200*
1,1,0.1600,-0.3200,0.3200*
%
%ADD48ROUNDEDRECTD48*%
G04:AMPARAMS|DCode=49|XSize=0.93mm|YSize=0.89mm|CornerRadius=0.089mm|HoleSize=0mm|Usage=FLASHONLY|Rotation=0.000|XOffset=0mm|YOffset=0mm|HoleType=Round|Shape=RoundedRectangle|*
%AMROUNDEDRECTD49*
21,1,0.9300,0.7120,0,0,0.0*
21,1,0.7520,0.8900,0,0,0.0*
1,1,0.1780,0.3760,-0.3560*
1,1,0.1780,-0.3760,-0.3560*
1,1,0.1780,-0.3760,0.3560*
1,1,0.1780,0.3760,0.3560*
%
%ADD49ROUNDEDRECTD49*%
%ADD50O,0.8000X1.4700*%
%ADD51C,0.1000*%
%ADD52C,0.2000*%
%ADD53C,0.3000*%
%ADD54C,0.1200*%
%ADD55C,0.5000*%
%ADD56R,1.5000X1.5000*%
%ADD57C,1.5000*%
%ADD58R,1.3500X1.3500*%
%ADD59R,1.5000X1.5000*%
%ADD60C,0.4500*%
%ADD61C,1.0000*%
%ADD62C,2.0000*%
%ADD63C,0.6000*%
G36*
X527118Y682240D02*
X528658Y681059D01*
X529840Y679518D01*
X530082Y678934D01*
X529161Y677556D01*
X528812Y675800D01*
Y42501D01*
X516300Y29988D01*
X403900D01*
X402144Y29639D01*
X400656Y28644D01*
X376600Y4588D01*
X52701D01*
X28644Y28644D01*
X27156Y29639D01*
X25400Y29988D01*
X10000D01*
X8244Y29639D01*
X6866Y28718D01*
X6282Y28960D01*
X4742Y30141D01*
X3560Y31682D01*
X3318Y32266D01*
X4239Y33644D01*
X4588Y35400D01*
Y675800D01*
X4239Y677556D01*
X3318Y678934D01*
X3560Y679518D01*
X4742Y681059D01*
X6282Y682240D01*
X6866Y682482D01*
X8244Y681561D01*
X10000Y681212D01*
X523400D01*
X525156Y681561D01*
X526534Y682482D01*
X527118Y682240D01*
D02*
G37*
%LPC*%
G36*
X508500Y305140D02*
X505759Y304780D01*
X503205Y303722D01*
X501011Y302039D01*
X499328Y299845D01*
X498270Y297291D01*
X497909Y294550D01*
X498270Y291809D01*
X499328Y289255D01*
X501011Y287061D01*
X503205Y285378D01*
X505759Y284320D01*
X508500Y283959D01*
X511241Y284320D01*
X513795Y285378D01*
X515989Y287061D01*
X517672Y289255D01*
X518730Y291809D01*
X519091Y294550D01*
X518730Y297291D01*
X517672Y299845D01*
X515989Y302039D01*
X513795Y303722D01*
X511241Y304780D01*
X508500Y305140D01*
D02*
G37*
G36*
X132500Y306833D02*
X130842Y306503D01*
X129436Y305564D01*
X128497Y304158D01*
X128167Y302500D01*
X128497Y300842D01*
X129393Y299500D01*
X128497Y298158D01*
X128167Y296500D01*
X128497Y294842D01*
X129436Y293436D01*
X130842Y292497D01*
X132500Y292167D01*
X134158Y292497D01*
X135564Y293436D01*
X136503Y294842D01*
X136833Y296500D01*
X136503Y298158D01*
X135607Y299500D01*
X136503Y300842D01*
X136833Y302500D01*
X136503Y304158D01*
X135564Y305564D01*
X134158Y306503D01*
X132500Y306833D01*
D02*
G37*
G36*
X24400Y288850D02*
X22920Y288655D01*
X20609Y287698D01*
X18625Y286175D01*
X17102Y284191D01*
X16144Y281880D01*
X15950Y280400D01*
X24400D01*
Y288850D01*
D02*
G37*
G36*
X26400D02*
Y280400D01*
X34850D01*
X34655Y281880D01*
X33698Y284191D01*
X32175Y286175D01*
X30191Y287698D01*
X27880Y288655D01*
X26400Y288850D01*
D02*
G37*
G36*
X508500Y330541D02*
X505759Y330180D01*
X503205Y329122D01*
X501011Y327439D01*
X499328Y325245D01*
X498270Y322691D01*
X497909Y319950D01*
X498270Y317209D01*
X499328Y314655D01*
X501011Y312461D01*
X503205Y310778D01*
X505759Y309720D01*
X508500Y309359D01*
X511241Y309720D01*
X513795Y310778D01*
X515989Y312461D01*
X517672Y314655D01*
X518730Y317209D01*
X519091Y319950D01*
X518730Y322691D01*
X517672Y325245D01*
X515989Y327439D01*
X513795Y329122D01*
X511241Y330180D01*
X508500Y330541D01*
D02*
G37*
G36*
X210100Y327833D02*
X208442Y327503D01*
X207036Y326564D01*
X206097Y325158D01*
X205767Y323500D01*
X206097Y321842D01*
X207036Y320436D01*
X208442Y319497D01*
X210100Y319167D01*
X211758Y319497D01*
X213164Y320436D01*
X214103Y321842D01*
X214433Y323500D01*
X214103Y325158D01*
X213164Y326564D01*
X211758Y327503D01*
X210100Y327833D01*
D02*
G37*
G36*
X203650Y302983D02*
X201992Y302653D01*
X200586Y301714D01*
X199647Y300308D01*
X199317Y298650D01*
X199647Y296992D01*
X200586Y295586D01*
X201992Y294647D01*
X203650Y294317D01*
X205308Y294647D01*
X206714Y295586D01*
X207653Y296992D01*
X207983Y298650D01*
X207653Y300308D01*
X206714Y301714D01*
X205308Y302653D01*
X203650Y302983D01*
D02*
G37*
G36*
X453850Y317683D02*
X452192Y317353D01*
X450786Y316414D01*
X449847Y315008D01*
X449517Y313350D01*
X449847Y311692D01*
X450786Y310286D01*
X452192Y309347D01*
X453850Y309017D01*
X455508Y309347D01*
X456914Y310286D01*
X457853Y311692D01*
X458183Y313350D01*
X457853Y315008D01*
X456914Y316414D01*
X455508Y317353D01*
X453850Y317683D01*
D02*
G37*
G36*
X34850Y278400D02*
X26400D01*
Y269950D01*
X27880Y270145D01*
X30191Y271102D01*
X32175Y272624D01*
X33698Y274609D01*
X34655Y276920D01*
X34850Y278400D01*
D02*
G37*
G36*
X183850Y266833D02*
X182191Y266504D01*
X180786Y265564D01*
X179846Y264158D01*
X179516Y262500D01*
X179846Y260842D01*
X180786Y259436D01*
X182191Y258497D01*
X183850Y258167D01*
X185508Y258497D01*
X186914Y259436D01*
X187853Y260842D01*
X188183Y262500D01*
X187853Y264158D01*
X186914Y265564D01*
X185508Y266504D01*
X183850Y266833D01*
D02*
G37*
G36*
X519000Y279650D02*
X498000D01*
Y258650D01*
X519000D01*
Y279650D01*
D02*
G37*
G36*
X24400Y263450D02*
X22920Y263256D01*
X20609Y262298D01*
X18625Y260776D01*
X17102Y258791D01*
X16144Y256480D01*
X15950Y255000D01*
X24400D01*
Y263450D01*
D02*
G37*
G36*
X26400D02*
Y255000D01*
X34850D01*
X34655Y256480D01*
X33698Y258791D01*
X32175Y260776D01*
X30191Y262298D01*
X27880Y263256D01*
X26400Y263450D01*
D02*
G37*
G36*
X203650Y272983D02*
X201992Y272653D01*
X200586Y271714D01*
X199647Y270308D01*
X199317Y268650D01*
X199647Y266992D01*
X200586Y265586D01*
X201992Y264647D01*
X203650Y264317D01*
X205308Y264647D01*
X206714Y265586D01*
X207653Y266992D01*
X207983Y268650D01*
X207653Y270308D01*
X206714Y271714D01*
X205308Y272653D01*
X203650Y272983D01*
D02*
G37*
G36*
X24400Y278400D02*
X15950D01*
X16144Y276920D01*
X17102Y274609D01*
X18625Y272624D01*
X20609Y271102D01*
X22920Y270145D01*
X24400Y269950D01*
Y278400D01*
D02*
G37*
G36*
X453850Y267983D02*
X452192Y267653D01*
X450786Y266714D01*
X449847Y265308D01*
X449517Y263650D01*
X449847Y261992D01*
X450786Y260586D01*
X452192Y259647D01*
X453850Y259317D01*
X455508Y259647D01*
X456914Y260586D01*
X457853Y261992D01*
X458183Y263650D01*
X457853Y265308D01*
X456914Y266714D01*
X455508Y267653D01*
X453850Y267983D01*
D02*
G37*
G36*
X63950Y271583D02*
X62292Y271253D01*
X60886Y270314D01*
X59947Y268908D01*
X59617Y267250D01*
X59947Y265592D01*
X60886Y264186D01*
X62292Y263247D01*
X63950Y262917D01*
X65608Y263247D01*
X67014Y264186D01*
X67953Y265592D01*
X68283Y267250D01*
X67953Y268908D01*
X67014Y270314D01*
X65608Y271253D01*
X63950Y271583D01*
D02*
G37*
G36*
X400000Y416533D02*
X398342Y416203D01*
X396936Y415264D01*
X395997Y413858D01*
X395667Y412200D01*
X395997Y410542D01*
X396936Y409136D01*
X398342Y408197D01*
X400000Y407867D01*
X401658Y408197D01*
X403064Y409136D01*
X404003Y410542D01*
X404333Y412200D01*
X404003Y413858D01*
X403064Y415264D01*
X401658Y416203D01*
X400000Y416533D01*
D02*
G37*
G36*
X106850Y418333D02*
X105191Y418003D01*
X103786Y417064D01*
X102846Y415658D01*
X102516Y414000D01*
X102846Y412341D01*
X103786Y410936D01*
X105191Y409996D01*
X106850Y409666D01*
X108508Y409996D01*
X109914Y410936D01*
X110853Y412341D01*
X111183Y414000D01*
X110853Y415658D01*
X109914Y417064D01*
X108508Y418003D01*
X106850Y418333D01*
D02*
G37*
G36*
X391100Y402333D02*
X389442Y402003D01*
X388036Y401064D01*
X387097Y399658D01*
X386767Y398000D01*
X387097Y396342D01*
X388036Y394936D01*
X389442Y393997D01*
X391100Y393667D01*
X392758Y393997D01*
X394164Y394936D01*
X395103Y396342D01*
X395433Y398000D01*
X395103Y399658D01*
X394164Y401064D01*
X392758Y402003D01*
X391100Y402333D01*
D02*
G37*
G36*
X35900Y416900D02*
X14900D01*
Y395900D01*
X35900D01*
Y416900D01*
D02*
G37*
G36*
X507500Y431000D02*
X506020Y430805D01*
X503709Y429848D01*
X501725Y428325D01*
X500202Y426341D01*
X499244Y424030D01*
X499050Y422550D01*
X507500D01*
Y431000D01*
D02*
G37*
G36*
X509500D02*
Y422550D01*
X517950D01*
X517755Y424030D01*
X516798Y426341D01*
X515275Y428325D01*
X513291Y429848D01*
X510980Y430805D01*
X509500Y431000D01*
D02*
G37*
G36*
X507500Y420550D02*
X499050D01*
X499244Y419070D01*
X500202Y416759D01*
X501725Y414774D01*
X503709Y413252D01*
X506020Y412294D01*
X507500Y412100D01*
Y420550D01*
D02*
G37*
G36*
X517950D02*
X509500D01*
Y412100D01*
X510980Y412294D01*
X513291Y413252D01*
X515275Y414774D01*
X516798Y416759D01*
X517755Y419070D01*
X517950Y420550D01*
D02*
G37*
G36*
X215800Y400684D02*
X214142Y400354D01*
X212736Y399414D01*
X211797Y398009D01*
X211467Y396350D01*
X211797Y394692D01*
X212736Y393286D01*
X214142Y392347D01*
X215800Y392017D01*
X217458Y392347D01*
X218864Y393286D01*
X219804Y394692D01*
X220133Y396350D01*
X219804Y398009D01*
X218864Y399414D01*
X217458Y400354D01*
X215800Y400684D01*
D02*
G37*
G36*
X508500Y355941D02*
X505759Y355580D01*
X503205Y354522D01*
X501011Y352839D01*
X499328Y350645D01*
X498270Y348091D01*
X497909Y345350D01*
X498270Y342609D01*
X499328Y340055D01*
X501011Y337861D01*
X503205Y336178D01*
X505759Y335120D01*
X508500Y334759D01*
X511241Y335120D01*
X513795Y336178D01*
X515989Y337861D01*
X517672Y340055D01*
X518730Y342609D01*
X519091Y345350D01*
X518730Y348091D01*
X517672Y350645D01*
X515989Y352839D01*
X513795Y354522D01*
X511241Y355580D01*
X508500Y355941D01*
D02*
G37*
G36*
X25400Y366191D02*
X22659Y365830D01*
X20105Y364772D01*
X17911Y363089D01*
X16228Y360895D01*
X15170Y358341D01*
X14809Y355600D01*
X15170Y352859D01*
X16228Y350305D01*
X17911Y348111D01*
X20105Y346428D01*
X22659Y345370D01*
X25400Y345009D01*
X28141Y345370D01*
X30695Y346428D01*
X32889Y348111D01*
X34572Y350305D01*
X35630Y352859D01*
X35991Y355600D01*
X35630Y358341D01*
X34572Y360895D01*
X32889Y363089D01*
X30695Y364772D01*
X28141Y365830D01*
X25400Y366191D01*
D02*
G37*
G36*
Y340791D02*
X22659Y340430D01*
X20105Y339372D01*
X17911Y337689D01*
X16228Y335495D01*
X15170Y332941D01*
X14809Y330200D01*
X15170Y327459D01*
X16228Y324905D01*
X17911Y322711D01*
X20105Y321028D01*
X22659Y319970D01*
X25400Y319609D01*
X28141Y319970D01*
X30695Y321028D01*
X32889Y322711D01*
X34572Y324905D01*
X35630Y327459D01*
X35991Y330200D01*
X35630Y332941D01*
X34572Y335495D01*
X32889Y337689D01*
X30695Y339372D01*
X28141Y340430D01*
X25400Y340791D01*
D02*
G37*
G36*
X137500Y346833D02*
X135842Y346503D01*
X134436Y345564D01*
X133497Y344158D01*
X133167Y342500D01*
X133497Y340842D01*
X134226Y339750D01*
X133497Y338658D01*
X133167Y337000D01*
X133497Y335342D01*
X134436Y333936D01*
X135842Y332997D01*
X137500Y332667D01*
X139158Y332997D01*
X140564Y333936D01*
X141503Y335342D01*
X141833Y337000D01*
X141503Y338658D01*
X140774Y339750D01*
X141503Y340842D01*
X141833Y342500D01*
X141503Y344158D01*
X140564Y345564D01*
X139158Y346503D01*
X137500Y346833D01*
D02*
G37*
G36*
X140000Y394833D02*
X138342Y394503D01*
X136936Y393564D01*
X135997Y392158D01*
X135667Y390500D01*
X135997Y388842D01*
X136893Y387500D01*
X135997Y386158D01*
X135667Y384500D01*
X135997Y382842D01*
X136936Y381436D01*
X138342Y380497D01*
X140000Y380167D01*
X141658Y380497D01*
X143064Y381436D01*
X144003Y382842D01*
X144333Y384500D01*
X144003Y386158D01*
X143107Y387500D01*
X144003Y388842D01*
X144333Y390500D01*
X144003Y392158D01*
X143064Y393564D01*
X141658Y394503D01*
X140000Y394833D01*
D02*
G37*
G36*
X508500Y406740D02*
X505759Y406380D01*
X503205Y405322D01*
X501011Y403639D01*
X499328Y401445D01*
X498270Y398891D01*
X497909Y396150D01*
X498270Y393409D01*
X499328Y390855D01*
X501011Y388661D01*
X503205Y386978D01*
X505759Y385920D01*
X508500Y385559D01*
X511241Y385920D01*
X513795Y386978D01*
X515989Y388661D01*
X517672Y390855D01*
X518730Y393409D01*
X519091Y396150D01*
X518730Y398891D01*
X517672Y401445D01*
X515989Y403639D01*
X513795Y405322D01*
X511241Y406380D01*
X508500Y406740D01*
D02*
G37*
G36*
Y381340D02*
X505759Y380980D01*
X503205Y379922D01*
X501011Y378239D01*
X499328Y376045D01*
X498270Y373491D01*
X497909Y370750D01*
X498270Y368009D01*
X499328Y365455D01*
X501011Y363261D01*
X503205Y361578D01*
X505759Y360520D01*
X508500Y360159D01*
X511241Y360520D01*
X513795Y361578D01*
X515989Y363261D01*
X517672Y365455D01*
X518730Y368009D01*
X519091Y370750D01*
X518730Y373491D01*
X517672Y376045D01*
X515989Y378239D01*
X513795Y379922D01*
X511241Y380980D01*
X508500Y381340D01*
D02*
G37*
G36*
X25400Y391591D02*
X22659Y391230D01*
X20105Y390172D01*
X17911Y388489D01*
X16228Y386295D01*
X15170Y383741D01*
X14809Y381000D01*
X15170Y378259D01*
X16228Y375705D01*
X17911Y373511D01*
X20105Y371828D01*
X22659Y370770D01*
X25400Y370409D01*
X28141Y370770D01*
X30695Y371828D01*
X32889Y373511D01*
X34572Y375705D01*
X35630Y378259D01*
X35991Y381000D01*
X35630Y383741D01*
X34572Y386295D01*
X32889Y388489D01*
X30695Y390172D01*
X28141Y391230D01*
X25400Y391591D01*
D02*
G37*
G36*
Y112191D02*
X22659Y111830D01*
X20105Y110772D01*
X17911Y109089D01*
X16228Y106895D01*
X15170Y104341D01*
X14809Y101600D01*
X15170Y98859D01*
X16228Y96305D01*
X17911Y94111D01*
X20105Y92428D01*
X22659Y91370D01*
X25400Y91009D01*
X28141Y91370D01*
X30695Y92428D01*
X32889Y94111D01*
X34572Y96305D01*
X35630Y98859D01*
X35991Y101600D01*
X35630Y104341D01*
X34572Y106895D01*
X32889Y109089D01*
X30695Y110772D01*
X28141Y111830D01*
X25400Y112191D01*
D02*
G37*
G36*
X508000D02*
X505259Y111830D01*
X502705Y110772D01*
X500511Y109089D01*
X498828Y106895D01*
X497770Y104341D01*
X497409Y101600D01*
X497770Y98859D01*
X498828Y96305D01*
X500511Y94111D01*
X502705Y92428D01*
X505259Y91370D01*
X508000Y91009D01*
X510741Y91370D01*
X513295Y92428D01*
X515489Y94111D01*
X517172Y96305D01*
X518230Y98859D01*
X518591Y101600D01*
X518230Y104341D01*
X517172Y106895D01*
X515489Y109089D01*
X513295Y110772D01*
X510741Y111830D01*
X508000Y112191D01*
D02*
G37*
G36*
X25400Y86791D02*
X22659Y86430D01*
X20105Y85372D01*
X17911Y83689D01*
X16228Y81495D01*
X15170Y78941D01*
X14809Y76200D01*
X15170Y73459D01*
X16228Y70905D01*
X17911Y68711D01*
X20105Y67028D01*
X22659Y65970D01*
X25400Y65609D01*
X28141Y65970D01*
X30695Y67028D01*
X32889Y68711D01*
X34572Y70905D01*
X35630Y73459D01*
X35991Y76200D01*
X35630Y78941D01*
X34572Y81495D01*
X32889Y83689D01*
X30695Y85372D01*
X28141Y86430D01*
X25400Y86791D01*
D02*
G37*
G36*
X508000D02*
X505259Y86430D01*
X502705Y85372D01*
X500511Y83689D01*
X498828Y81495D01*
X497770Y78941D01*
X497409Y76200D01*
X497770Y73459D01*
X498828Y70905D01*
X500511Y68711D01*
X502705Y67028D01*
X505259Y65970D01*
X508000Y65609D01*
X510741Y65970D01*
X513295Y67028D01*
X515489Y68711D01*
X517172Y70905D01*
X518230Y73459D01*
X518591Y76200D01*
X518230Y78941D01*
X517172Y81495D01*
X515489Y83689D01*
X513295Y85372D01*
X510741Y86430D01*
X508000Y86791D01*
D02*
G37*
G36*
X25400Y162991D02*
X22659Y162630D01*
X20105Y161572D01*
X17911Y159889D01*
X16228Y157695D01*
X15170Y155141D01*
X14809Y152400D01*
X15170Y149659D01*
X16228Y147105D01*
X17911Y144911D01*
X20105Y143228D01*
X22659Y142170D01*
X25400Y141809D01*
X28141Y142170D01*
X30695Y143228D01*
X32889Y144911D01*
X34572Y147105D01*
X35630Y149659D01*
X35991Y152400D01*
X35630Y155141D01*
X34572Y157695D01*
X32889Y159889D01*
X30695Y161572D01*
X28141Y162630D01*
X25400Y162991D01*
D02*
G37*
G36*
X508000D02*
X505259Y162630D01*
X502705Y161572D01*
X500511Y159889D01*
X498828Y157695D01*
X497770Y155141D01*
X497409Y152400D01*
X497770Y149659D01*
X498828Y147105D01*
X500511Y144911D01*
X502705Y143228D01*
X505259Y142170D01*
X508000Y141809D01*
X510741Y142170D01*
X513295Y143228D01*
X515489Y144911D01*
X517172Y147105D01*
X518230Y149659D01*
X518591Y152400D01*
X518230Y155141D01*
X517172Y157695D01*
X515489Y159889D01*
X513295Y161572D01*
X510741Y162630D01*
X508000Y162991D01*
D02*
G37*
G36*
X25400Y137591D02*
X22659Y137230D01*
X20105Y136172D01*
X17911Y134489D01*
X16228Y132295D01*
X15170Y129741D01*
X14809Y127000D01*
X15170Y124259D01*
X16228Y121705D01*
X17911Y119511D01*
X20105Y117828D01*
X22659Y116770D01*
X25400Y116409D01*
X28141Y116770D01*
X30695Y117828D01*
X32889Y119511D01*
X34572Y121705D01*
X35630Y124259D01*
X35991Y127000D01*
X35630Y129741D01*
X34572Y132295D01*
X32889Y134489D01*
X30695Y136172D01*
X28141Y137230D01*
X25400Y137591D01*
D02*
G37*
G36*
X508000D02*
X505259Y137230D01*
X502705Y136172D01*
X500511Y134489D01*
X498828Y132295D01*
X497770Y129741D01*
X497409Y127000D01*
X497770Y124259D01*
X498828Y121705D01*
X500511Y119511D01*
X502705Y117828D01*
X505259Y116770D01*
X508000Y116409D01*
X510741Y116770D01*
X513295Y117828D01*
X515489Y119511D01*
X517172Y121705D01*
X518230Y124259D01*
X518591Y127000D01*
X518230Y129741D01*
X517172Y132295D01*
X515489Y134489D01*
X513295Y136172D01*
X510741Y137230D01*
X508000Y137591D01*
D02*
G37*
G36*
X473400Y89669D02*
X469810Y89196D01*
X466466Y87811D01*
X463593Y85607D01*
X461389Y82734D01*
X460004Y79390D01*
X459531Y75800D01*
X460004Y72210D01*
X461389Y68866D01*
X463593Y65993D01*
X466466Y63789D01*
X469810Y62404D01*
X473400Y61931D01*
X476990Y62404D01*
X480334Y63789D01*
X483207Y65993D01*
X485411Y68866D01*
X486796Y72210D01*
X487269Y75800D01*
X486796Y79390D01*
X485411Y82734D01*
X483207Y85607D01*
X480334Y87811D01*
X476990Y89196D01*
X473400Y89669D01*
D02*
G37*
G36*
X123400Y39669D02*
X119810Y39196D01*
X116466Y37811D01*
X113593Y35607D01*
X111389Y32734D01*
X110004Y29390D01*
X109531Y25800D01*
X110004Y22211D01*
X111389Y18866D01*
X113593Y15993D01*
X116466Y13789D01*
X119810Y12404D01*
X123400Y11931D01*
X126989Y12404D01*
X130334Y13789D01*
X133207Y15993D01*
X135411Y18866D01*
X136796Y22211D01*
X137269Y25800D01*
X136796Y29390D01*
X135411Y32734D01*
X133207Y35607D01*
X130334Y37811D01*
X126989Y39196D01*
X123400Y39669D01*
D02*
G37*
G36*
X263500Y23900D02*
X255000D01*
Y15400D01*
X263500D01*
Y23900D01*
D02*
G37*
G36*
X76200Y44492D02*
X72475Y44125D01*
X68894Y43039D01*
X65593Y41274D01*
X62700Y38900D01*
X60326Y36007D01*
X58561Y32706D01*
X57475Y29125D01*
X57108Y25400D01*
X57475Y21675D01*
X58561Y18094D01*
X60326Y14793D01*
X62700Y11900D01*
X65593Y9526D01*
X68894Y7761D01*
X72475Y6675D01*
X76200Y6308D01*
X79925Y6675D01*
X83506Y7761D01*
X86807Y9526D01*
X89700Y11900D01*
X92074Y14793D01*
X93839Y18094D01*
X94925Y21675D01*
X95292Y25400D01*
X94925Y29125D01*
X93839Y32706D01*
X92074Y36007D01*
X89700Y38900D01*
X86807Y41274D01*
X83506Y43039D01*
X79925Y44125D01*
X76200Y44492D01*
D02*
G37*
G36*
X355600D02*
X351875Y44125D01*
X348294Y43039D01*
X344993Y41274D01*
X342100Y38900D01*
X339726Y36007D01*
X337961Y32706D01*
X336875Y29125D01*
X336508Y25400D01*
X336875Y21675D01*
X337961Y18094D01*
X339726Y14793D01*
X342100Y11900D01*
X344993Y9526D01*
X348294Y7761D01*
X351875Y6675D01*
X355600Y6308D01*
X359325Y6675D01*
X362906Y7761D01*
X366207Y9526D01*
X369100Y11900D01*
X371474Y14793D01*
X373239Y18094D01*
X374325Y21675D01*
X374692Y25400D01*
X374325Y29125D01*
X373239Y32706D01*
X371474Y36007D01*
X369100Y38900D01*
X366207Y41274D01*
X362906Y43039D01*
X359325Y44125D01*
X355600Y44492D01*
D02*
G37*
G36*
X25400Y61391D02*
X22659Y61030D01*
X20105Y59972D01*
X17911Y58289D01*
X16228Y56095D01*
X15170Y53541D01*
X14809Y50800D01*
X15170Y48059D01*
X16228Y45505D01*
X17911Y43311D01*
X20105Y41628D01*
X22659Y40570D01*
X25400Y40209D01*
X28141Y40570D01*
X30695Y41628D01*
X32889Y43311D01*
X34572Y45505D01*
X35630Y48059D01*
X35991Y50800D01*
X35630Y53541D01*
X34572Y56095D01*
X32889Y58289D01*
X30695Y59972D01*
X28141Y61030D01*
X25400Y61391D01*
D02*
G37*
G36*
X518500Y61300D02*
X497500D01*
Y40300D01*
X518500D01*
Y61300D01*
D02*
G37*
G36*
X263500Y34400D02*
X255000D01*
Y25900D01*
X263500D01*
Y34400D01*
D02*
G37*
G36*
X177800Y60891D02*
X175059Y60530D01*
X172505Y59472D01*
X170311Y57789D01*
X168628Y55595D01*
X167570Y53041D01*
X167209Y50300D01*
X167570Y47559D01*
X168628Y45005D01*
X170311Y42811D01*
X172505Y41128D01*
X175059Y40070D01*
X177800Y39709D01*
X180541Y40070D01*
X183095Y41128D01*
X185289Y42811D01*
X186972Y45005D01*
X188030Y47559D01*
X188391Y50300D01*
X188030Y53041D01*
X186972Y55595D01*
X185289Y57789D01*
X183095Y59472D01*
X180541Y60530D01*
X177800Y60891D01*
D02*
G37*
G36*
X508000Y239191D02*
X505259Y238830D01*
X502705Y237772D01*
X500511Y236089D01*
X498828Y233895D01*
X497770Y231341D01*
X497409Y228600D01*
X497770Y225859D01*
X498828Y223305D01*
X500511Y221111D01*
X502705Y219428D01*
X505259Y218370D01*
X508000Y218009D01*
X510741Y218370D01*
X513295Y219428D01*
X515489Y221111D01*
X517172Y223305D01*
X518230Y225859D01*
X518591Y228600D01*
X518230Y231341D01*
X517172Y233895D01*
X515489Y236089D01*
X513295Y237772D01*
X510741Y238830D01*
X508000Y239191D01*
D02*
G37*
G36*
X77650Y232733D02*
X75992Y232403D01*
X74586Y231464D01*
X73647Y230058D01*
X73317Y228400D01*
X73647Y226742D01*
X74586Y225336D01*
X75992Y224397D01*
X77650Y224067D01*
X79308Y224397D01*
X80714Y225336D01*
X81653Y226742D01*
X81983Y228400D01*
X81653Y230058D01*
X80714Y231464D01*
X79308Y232403D01*
X77650Y232733D01*
D02*
G37*
G36*
X202893Y248634D02*
X202325Y248521D01*
X201755Y248414D01*
X201740Y248404D01*
X201722Y248401D01*
X201240Y248079D01*
X200755Y247763D01*
X200598Y247609D01*
X200552Y247569D01*
X196500D01*
X195134Y247297D01*
X193977Y246523D01*
X157172Y209719D01*
X107004D01*
X106924Y209787D01*
X106795Y209913D01*
X106309Y210229D01*
X105827Y210551D01*
X105810Y210554D01*
X105795Y210564D01*
X105224Y210671D01*
X104657Y210784D01*
X104639Y210780D01*
X104622Y210784D01*
X104054Y210664D01*
X103486Y210551D01*
X103471Y210541D01*
X103454Y210537D01*
X103302Y210433D01*
X103050Y210483D01*
X101392Y210153D01*
X99986Y209214D01*
X99047Y207808D01*
X98717Y206150D01*
X99047Y204492D01*
X99270Y204157D01*
X99223Y204069D01*
X97478D01*
X95669Y205877D01*
X95661Y205983D01*
X95659Y206163D01*
X95539Y206730D01*
X95426Y207298D01*
X95416Y207313D01*
X95412Y207331D01*
X95084Y207810D01*
X94763Y208290D01*
X94748Y208300D01*
X94738Y208315D01*
X94251Y208633D01*
X93770Y208953D01*
X93753Y208957D01*
X93738Y208967D01*
X93557Y209001D01*
X93414Y209214D01*
X92008Y210153D01*
X90350Y210483D01*
X88692Y210153D01*
X87286Y209214D01*
X86347Y207808D01*
X86017Y206150D01*
X86347Y204492D01*
X87286Y203086D01*
X87499Y202943D01*
X87533Y202762D01*
X87543Y202747D01*
X87547Y202730D01*
X87868Y202249D01*
X88185Y201762D01*
X88200Y201752D01*
X88210Y201737D01*
X88691Y201416D01*
X89169Y201088D01*
X89187Y201084D01*
X89202Y201074D01*
X89771Y200961D01*
X90337Y200842D01*
X90557Y200839D01*
X90618Y200835D01*
X93477Y197977D01*
X94634Y197203D01*
X96000Y196931D01*
X171301D01*
X172666Y197203D01*
X173824Y197977D01*
X207023Y231176D01*
X207797Y232333D01*
X208068Y233699D01*
Y234046D01*
X208136Y234126D01*
X208262Y234255D01*
X208578Y234741D01*
X208901Y235223D01*
X208904Y235240D01*
X208914Y235255D01*
X209021Y235826D01*
X209133Y236393D01*
X209130Y236411D01*
X209133Y236428D01*
X209013Y236996D01*
X208901Y237564D01*
X208891Y237579D01*
X208887Y237596D01*
X208783Y237748D01*
X208833Y238000D01*
X208503Y239658D01*
X207607Y241000D01*
X208503Y242342D01*
X208833Y244000D01*
X208503Y245658D01*
X207564Y247064D01*
X206158Y248003D01*
X204500Y248333D01*
X204248Y248283D01*
X204096Y248387D01*
X204078Y248391D01*
X204063Y248401D01*
X203496Y248514D01*
X202928Y248634D01*
X202910Y248630D01*
X202893Y248634D01*
D02*
G37*
G36*
X25400Y239191D02*
X22659Y238830D01*
X20105Y237772D01*
X17911Y236089D01*
X16228Y233895D01*
X15170Y231341D01*
X14809Y228600D01*
X15170Y225859D01*
X16228Y223305D01*
X17911Y221111D01*
X20105Y219428D01*
X22659Y218370D01*
X25400Y218009D01*
X28141Y218370D01*
X30695Y219428D01*
X32889Y221111D01*
X34572Y223305D01*
X35630Y225859D01*
X35991Y228600D01*
X35630Y231341D01*
X34572Y233895D01*
X32889Y236089D01*
X30695Y237772D01*
X28141Y238830D01*
X25400Y239191D01*
D02*
G37*
G36*
X34850Y253000D02*
X26400D01*
Y244550D01*
X27880Y244744D01*
X30191Y245702D01*
X32175Y247225D01*
X33698Y249209D01*
X34655Y251520D01*
X34850Y253000D01*
D02*
G37*
G36*
X130000Y258833D02*
X128342Y258503D01*
X126936Y257564D01*
X125997Y256158D01*
X125667Y254500D01*
X125997Y252842D01*
X126726Y251750D01*
X125997Y250658D01*
X125667Y249000D01*
X125997Y247342D01*
X126936Y245936D01*
X128342Y244997D01*
X130000Y244667D01*
X131658Y244997D01*
X133064Y245936D01*
X134003Y247342D01*
X134333Y249000D01*
X134003Y250658D01*
X133274Y251750D01*
X134003Y252842D01*
X134333Y254500D01*
X134003Y256158D01*
X133064Y257564D01*
X131658Y258503D01*
X130000Y258833D01*
D02*
G37*
G36*
X146450Y241333D02*
X144792Y241003D01*
X143386Y240064D01*
X142447Y238658D01*
X142117Y237000D01*
X142447Y235342D01*
X143386Y233936D01*
X144792Y232997D01*
X146450Y232667D01*
X148108Y232997D01*
X149514Y233936D01*
X150453Y235342D01*
X150783Y237000D01*
X150453Y238658D01*
X149514Y240064D01*
X148108Y241003D01*
X146450Y241333D01*
D02*
G37*
G36*
X24400Y253000D02*
X15950D01*
X16144Y251520D01*
X17102Y249209D01*
X18625Y247225D01*
X20609Y245702D01*
X22920Y244744D01*
X24400Y244550D01*
Y253000D01*
D02*
G37*
G36*
X453500Y207183D02*
X451842Y206853D01*
X450436Y205914D01*
X449497Y204508D01*
X449167Y202850D01*
X449497Y201192D01*
X450436Y199786D01*
X451842Y198847D01*
X453500Y198517D01*
X455158Y198847D01*
X456564Y199786D01*
X457503Y201192D01*
X457833Y202850D01*
X457503Y204508D01*
X456564Y205914D01*
X455158Y206853D01*
X453500Y207183D01*
D02*
G37*
G36*
X336874Y163959D02*
X335216Y163629D01*
X333810Y162690D01*
X332871Y161284D01*
X332541Y159626D01*
X332871Y157967D01*
X333810Y156562D01*
X335216Y155622D01*
X336874Y155292D01*
X338533Y155622D01*
X339939Y156562D01*
X340878Y157967D01*
X341208Y159626D01*
X340878Y161284D01*
X339939Y162690D01*
X338533Y163629D01*
X336874Y163959D01*
D02*
G37*
G36*
X321375Y167408D02*
X319716Y167078D01*
X318310Y166138D01*
X317371Y164733D01*
X317041Y163074D01*
X317371Y161416D01*
X318310Y160010D01*
X319716Y159071D01*
X321375Y158741D01*
X323033Y159071D01*
X324439Y160010D01*
X325378Y161416D01*
X325708Y163074D01*
X325378Y164733D01*
X324439Y166138D01*
X323033Y167078D01*
X321375Y167408D01*
D02*
G37*
G36*
X256100Y156969D02*
X254734Y156697D01*
X254446Y156504D01*
X254442Y156503D01*
X253036Y155564D01*
X252097Y154158D01*
X251767Y152500D01*
X251770Y152485D01*
X251699Y152414D01*
X251100Y152533D01*
X250501Y152414D01*
X250440Y152475D01*
X250433Y152502D01*
X250103Y154158D01*
X249164Y155564D01*
X247758Y156503D01*
X246100Y156833D01*
X244442Y156503D01*
X243036Y155564D01*
X242097Y154158D01*
X241767Y152500D01*
X241817Y152248D01*
X241713Y152096D01*
X241709Y152079D01*
X241699Y152064D01*
X241586Y151496D01*
X241466Y150928D01*
X241470Y150911D01*
X241466Y150893D01*
X241579Y150326D01*
X241686Y149755D01*
X241696Y149740D01*
X241699Y149723D01*
X242021Y149241D01*
X242337Y148755D01*
X242491Y148598D01*
X242531Y148553D01*
Y144578D01*
X200677Y102723D01*
X199903Y101566D01*
X199631Y100200D01*
Y62444D01*
X199543Y62248D01*
X199339Y61891D01*
X199022Y61419D01*
X198627Y60897D01*
X196628Y58662D01*
X195906Y57938D01*
X195711Y57789D01*
X194028Y55595D01*
X192970Y53041D01*
X192609Y50300D01*
X192970Y47559D01*
X194028Y45005D01*
X195711Y42811D01*
X197905Y41128D01*
X200459Y40070D01*
X203200Y39709D01*
X205941Y40070D01*
X208495Y41128D01*
X210689Y42811D01*
X212235Y44827D01*
X212330Y44795D01*
Y39077D01*
X209264Y36010D01*
X209062Y35934D01*
X208666Y35826D01*
X208108Y35717D01*
X207460Y35627D01*
X204466Y35460D01*
X203443Y35459D01*
X203200Y35491D01*
X200459Y35130D01*
X197905Y34072D01*
X195711Y32389D01*
X194028Y30195D01*
X192970Y27641D01*
X192609Y24900D01*
X192970Y22159D01*
X194028Y19605D01*
X195711Y17411D01*
X197905Y15728D01*
X199019Y15267D01*
X199000Y15169D01*
X192578D01*
X188911Y18836D01*
X188834Y19038D01*
X188726Y19434D01*
X188617Y19992D01*
X188527Y20640D01*
X188360Y23634D01*
X188359Y24657D01*
X188391Y24900D01*
X188030Y27641D01*
X186972Y30195D01*
X185289Y32389D01*
X183095Y34072D01*
X180541Y35130D01*
X177800Y35491D01*
X175059Y35130D01*
X172505Y34072D01*
X170311Y32389D01*
X168628Y30195D01*
X167570Y27641D01*
X167209Y24900D01*
X167570Y22159D01*
X168628Y19605D01*
X170311Y17411D01*
X172505Y15728D01*
X175059Y14670D01*
X177800Y14309D01*
X178027Y14339D01*
X180194Y14311D01*
X182034Y14176D01*
X182708Y14083D01*
X183266Y13974D01*
X183662Y13866D01*
X183864Y13789D01*
X188577Y9077D01*
X189734Y8303D01*
X191100Y8031D01*
X232900D01*
X234266Y8303D01*
X235423Y9077D01*
X244408Y18061D01*
X244500Y18023D01*
Y15400D01*
X253000D01*
Y24900D01*
Y34400D01*
X246869D01*
Y42424D01*
X246958Y42468D01*
X248705Y41128D01*
X251259Y40070D01*
X254000Y39709D01*
X256741Y40070D01*
X259295Y41128D01*
X261489Y42811D01*
X261628Y42993D01*
X263180Y44505D01*
X264576Y45711D01*
X265119Y46122D01*
X265591Y46439D01*
X265948Y46643D01*
X266144Y46731D01*
X280300D01*
X281666Y47003D01*
X282823Y47777D01*
X358523Y123477D01*
X359297Y124634D01*
X359569Y126000D01*
Y144246D01*
X359637Y144326D01*
X359763Y144455D01*
X360079Y144941D01*
X360401Y145423D01*
X360404Y145440D01*
X360414Y145455D01*
X360521Y146026D01*
X360634Y146593D01*
X360630Y146611D01*
X360634Y146628D01*
X360514Y147197D01*
X360401Y147764D01*
X360391Y147779D01*
X360387Y147796D01*
X360283Y147948D01*
X360333Y148200D01*
X360003Y149858D01*
X359064Y151264D01*
X357658Y152203D01*
X356000Y152533D01*
X355401Y152414D01*
X355340Y152475D01*
X355333Y152502D01*
X355003Y154158D01*
X354064Y155564D01*
X352658Y156503D01*
X351000Y156833D01*
X349342Y156503D01*
X347936Y155564D01*
X346997Y154158D01*
X346667Y152500D01*
X346717Y152248D01*
X346613Y152096D01*
X346609Y152079D01*
X346599Y152064D01*
X346486Y151496D01*
X346366Y150928D01*
X346370Y150911D01*
X346366Y150893D01*
X346479Y150326D01*
X346586Y149755D01*
X346596Y149740D01*
X346599Y149723D01*
X346921Y149241D01*
X347237Y148755D01*
X347391Y148598D01*
X347431Y148553D01*
Y129106D01*
X289894Y71569D01*
X253500D01*
X252134Y71297D01*
X250977Y70523D01*
X243161Y62708D01*
X243069Y62746D01*
Y119522D01*
X258623Y135077D01*
X259397Y136234D01*
X259669Y137600D01*
Y148546D01*
X259737Y148626D01*
X259863Y148755D01*
X260179Y149241D01*
X260501Y149723D01*
X260504Y149740D01*
X260514Y149755D01*
X260621Y150326D01*
X260734Y150893D01*
X260730Y150911D01*
X260734Y150928D01*
X260614Y151496D01*
X260501Y152064D01*
X260491Y152079D01*
X260487Y152096D01*
X260383Y152248D01*
X260433Y152500D01*
X260103Y154158D01*
X259164Y155564D01*
X257758Y156503D01*
X257754Y156504D01*
X257466Y156697D01*
X256100Y156969D01*
D02*
G37*
G36*
X431650Y162833D02*
X429992Y162503D01*
X428586Y161564D01*
X427647Y160158D01*
X427317Y158500D01*
X427647Y156842D01*
X428586Y155436D01*
X429992Y154497D01*
X431650Y154167D01*
X433308Y154497D01*
X434714Y155436D01*
X435653Y156842D01*
X435983Y158500D01*
X435653Y160158D01*
X434714Y161564D01*
X433308Y162503D01*
X431650Y162833D01*
D02*
G37*
G36*
X35900Y188300D02*
X14900D01*
Y167300D01*
X35900D01*
Y188300D01*
D02*
G37*
G36*
X508000Y213791D02*
X505259Y213430D01*
X502705Y212372D01*
X500511Y210689D01*
X498828Y208495D01*
X497770Y205941D01*
X497409Y203200D01*
X497770Y200459D01*
X498828Y197905D01*
X500511Y195711D01*
X502705Y194028D01*
X505259Y192970D01*
X508000Y192609D01*
X510741Y192970D01*
X513295Y194028D01*
X515489Y195711D01*
X517172Y197905D01*
X518230Y200459D01*
X518591Y203200D01*
X518230Y205941D01*
X517172Y208495D01*
X515489Y210689D01*
X513295Y212372D01*
X510741Y213430D01*
X508000Y213791D01*
D02*
G37*
G36*
X376774Y167908D02*
X375116Y167578D01*
X373710Y166638D01*
X372771Y165233D01*
X372441Y163574D01*
X372771Y161916D01*
X373710Y160510D01*
X375116Y159571D01*
X376774Y159241D01*
X378433Y159571D01*
X379838Y160510D01*
X380778Y161916D01*
X381108Y163574D01*
X380778Y165233D01*
X379838Y166638D01*
X378433Y167578D01*
X376774Y167908D01*
D02*
G37*
G36*
X508000Y188391D02*
X505259Y188030D01*
X502705Y186972D01*
X500511Y185289D01*
X498828Y183095D01*
X497770Y180541D01*
X497409Y177800D01*
X497770Y175059D01*
X498828Y172505D01*
X500511Y170311D01*
X502705Y168628D01*
X505259Y167570D01*
X508000Y167209D01*
X510741Y167570D01*
X513295Y168628D01*
X515489Y170311D01*
X517172Y172505D01*
X518230Y175059D01*
X518591Y177800D01*
X518230Y180541D01*
X517172Y183095D01*
X515489Y185289D01*
X513295Y186972D01*
X510741Y188030D01*
X508000Y188391D01*
D02*
G37*
G36*
X157700Y493191D02*
X154959Y492830D01*
X152405Y491772D01*
X150211Y490089D01*
X148528Y487895D01*
X147470Y485341D01*
X147109Y482600D01*
X147470Y479859D01*
X148528Y477305D01*
X150211Y475111D01*
X152405Y473428D01*
X154959Y472370D01*
X157700Y472009D01*
X160441Y472370D01*
X162995Y473428D01*
X165189Y475111D01*
X166872Y477305D01*
X167930Y479859D01*
X168291Y482600D01*
X167930Y485341D01*
X166872Y487895D01*
X165189Y490089D01*
X162995Y491772D01*
X160441Y492830D01*
X157700Y493191D01*
D02*
G37*
G36*
X132300D02*
X129559Y492830D01*
X127005Y491772D01*
X124811Y490089D01*
X123128Y487895D01*
X122070Y485341D01*
X121709Y482600D01*
X122070Y479859D01*
X123128Y477305D01*
X124811Y475111D01*
X127005Y473428D01*
X129559Y472370D01*
X132300Y472009D01*
X135041Y472370D01*
X137595Y473428D01*
X139789Y475111D01*
X141472Y477305D01*
X142530Y479859D01*
X142891Y482600D01*
X142530Y485341D01*
X141472Y487895D01*
X139789Y490089D01*
X137595Y491772D01*
X135041Y492830D01*
X132300Y493191D01*
D02*
G37*
G36*
X101600D02*
X98859Y492830D01*
X96305Y491772D01*
X94111Y490089D01*
X92428Y487895D01*
X91370Y485341D01*
X91009Y482600D01*
X91370Y479859D01*
X92428Y477305D01*
X94111Y475111D01*
X96305Y473428D01*
X98859Y472370D01*
X101600Y472009D01*
X104341Y472370D01*
X106895Y473428D01*
X109089Y475111D01*
X110772Y477305D01*
X111830Y479859D01*
X112191Y482600D01*
X111830Y485341D01*
X110772Y487895D01*
X109089Y490089D01*
X106895Y491772D01*
X104341Y492830D01*
X101600Y493191D01*
D02*
G37*
G36*
X76200Y518591D02*
X73459Y518230D01*
X70905Y517172D01*
X68711Y515489D01*
X67028Y513295D01*
X65970Y510741D01*
X65609Y508000D01*
X65970Y505259D01*
X67028Y502705D01*
X68711Y500511D01*
X70905Y498828D01*
X73459Y497770D01*
X76200Y497409D01*
X78941Y497770D01*
X81495Y498828D01*
X83689Y500511D01*
X85372Y502705D01*
X86430Y505259D01*
X86791Y508000D01*
X86430Y510741D01*
X85372Y513295D01*
X83689Y515489D01*
X81495Y517172D01*
X78941Y518230D01*
X76200Y518591D01*
D02*
G37*
G36*
X508500Y508340D02*
X505759Y507980D01*
X503205Y506922D01*
X501011Y505239D01*
X499328Y503045D01*
X498270Y500491D01*
X497909Y497750D01*
X498270Y495009D01*
X499328Y492455D01*
X501011Y490261D01*
X503205Y488578D01*
X505759Y487520D01*
X508500Y487159D01*
X511241Y487520D01*
X513795Y488578D01*
X515989Y490261D01*
X517672Y492455D01*
X518730Y495009D01*
X519091Y497750D01*
X518730Y500491D01*
X517672Y503045D01*
X515989Y505239D01*
X513795Y506922D01*
X511241Y507980D01*
X508500Y508340D01*
D02*
G37*
G36*
X195800Y493191D02*
X193059Y492830D01*
X190505Y491772D01*
X188311Y490089D01*
X186628Y487895D01*
X185570Y485341D01*
X185209Y482600D01*
X185570Y479859D01*
X186628Y477305D01*
X188311Y475111D01*
X190505Y473428D01*
X193059Y472370D01*
X195800Y472009D01*
X198541Y472370D01*
X201095Y473428D01*
X203289Y475111D01*
X204972Y477305D01*
X206030Y479859D01*
X206391Y482600D01*
X206030Y485341D01*
X204972Y487895D01*
X203289Y490089D01*
X201095Y491772D01*
X198541Y492830D01*
X195800Y493191D01*
D02*
G37*
G36*
X76200D02*
X73459Y492830D01*
X70905Y491772D01*
X68711Y490089D01*
X67028Y487895D01*
X65970Y485341D01*
X65609Y482600D01*
X65970Y479859D01*
X67028Y477305D01*
X68711Y475111D01*
X70905Y473428D01*
X73459Y472370D01*
X76200Y472009D01*
X78941Y472370D01*
X81495Y473428D01*
X83689Y475111D01*
X85372Y477305D01*
X86430Y479859D01*
X86791Y482600D01*
X86430Y485341D01*
X85372Y487895D01*
X83689Y490089D01*
X81495Y491772D01*
X78941Y492830D01*
X76200Y493191D01*
D02*
G37*
G36*
X131300Y466700D02*
X122800D01*
Y458200D01*
X131300D01*
Y466700D01*
D02*
G37*
G36*
X85700D02*
X77200D01*
Y458200D01*
X85700D01*
Y466700D01*
D02*
G37*
G36*
X440000Y628618D02*
X209500D01*
X207159Y628152D01*
X205174Y626826D01*
X172674Y594326D01*
X171348Y592341D01*
X170882Y590000D01*
Y444534D01*
X165466Y439118D01*
X91000D01*
X88659Y438652D01*
X86674Y437326D01*
X39674Y390326D01*
X38348Y388341D01*
X37882Y386000D01*
Y325934D01*
X28420Y316471D01*
X28356Y316419D01*
X27973Y316144D01*
X27602Y315918D01*
X27244Y315736D01*
X26895Y315595D01*
X26552Y315489D01*
X26210Y315416D01*
X25863Y315373D01*
X25600Y315364D01*
X25400Y315391D01*
X22659Y315030D01*
X20105Y313972D01*
X17911Y312289D01*
X16228Y310095D01*
X15170Y307541D01*
X14809Y304800D01*
X15170Y302059D01*
X16228Y299505D01*
X17911Y297311D01*
X20105Y295628D01*
X22659Y294570D01*
X25400Y294209D01*
X28141Y294570D01*
X30695Y295628D01*
X32889Y297311D01*
X34572Y299505D01*
X35630Y302059D01*
X35991Y304800D01*
X35964Y305000D01*
X35973Y305263D01*
X36016Y305610D01*
X36089Y305952D01*
X36195Y306294D01*
X36336Y306644D01*
X36518Y307002D01*
X36744Y307373D01*
X37019Y307757D01*
X37071Y307820D01*
X48326Y319074D01*
X49652Y321059D01*
X50118Y323400D01*
Y383466D01*
X93534Y426883D01*
X104839D01*
X104868Y426787D01*
X103786Y426064D01*
X102846Y424658D01*
X102516Y423000D01*
X102846Y421341D01*
X103786Y419936D01*
X105191Y418996D01*
X106850Y418666D01*
X107102Y418717D01*
X107254Y418612D01*
X107271Y418609D01*
X107286Y418599D01*
X107853Y418486D01*
X108421Y418366D01*
X108439Y418369D01*
X108457Y418366D01*
X109024Y418479D01*
X109594Y418586D01*
X109609Y418595D01*
X109627Y418599D01*
X110109Y418921D01*
X110594Y419237D01*
X110751Y419391D01*
X110797Y419431D01*
X229931D01*
Y227454D01*
X229863Y227374D01*
X229737Y227245D01*
X229421Y226759D01*
X229099Y226277D01*
X229096Y226260D01*
X229086Y226245D01*
X228979Y225674D01*
X228866Y225107D01*
X228870Y225089D01*
X228866Y225072D01*
X228986Y224503D01*
X229099Y223936D01*
X229109Y223921D01*
X229113Y223904D01*
X229217Y223752D01*
X229167Y223500D01*
X229497Y221842D01*
X230436Y220436D01*
X231842Y219497D01*
X233035Y219259D01*
X233099Y218936D01*
X233109Y218921D01*
X233113Y218904D01*
X233217Y218752D01*
X233167Y218500D01*
X233497Y216842D01*
X234436Y215436D01*
X235842Y214497D01*
X237500Y214167D01*
X238513Y214368D01*
X238599Y213936D01*
X238609Y213921D01*
X238613Y213904D01*
X238717Y213752D01*
X238667Y213500D01*
X238936Y212146D01*
X238873Y212069D01*
X220500D01*
X219134Y211797D01*
X217977Y211023D01*
X209022Y202069D01*
X202954D01*
X202874Y202137D01*
X202745Y202263D01*
X202259Y202579D01*
X201777Y202901D01*
X201760Y202904D01*
X201745Y202914D01*
X201174Y203021D01*
X200607Y203134D01*
X200589Y203130D01*
X200572Y203134D01*
X200004Y203014D01*
X199436Y202901D01*
X199421Y202891D01*
X199404Y202887D01*
X199252Y202783D01*
X199000Y202833D01*
X197342Y202503D01*
X195936Y201564D01*
X194997Y200158D01*
X194667Y198500D01*
X194997Y196842D01*
X195936Y195436D01*
X197342Y194497D01*
X199000Y194167D01*
X199252Y194217D01*
X199372Y194134D01*
X199191Y193224D01*
X199521Y191566D01*
X200461Y190160D01*
X201866Y189221D01*
X203525Y188891D01*
X205183Y189221D01*
X206589Y190160D01*
X207528Y191566D01*
X207858Y193224D01*
X207538Y194831D01*
X207607Y194931D01*
X210500D01*
X211866Y195203D01*
X213023Y195977D01*
X221978Y204931D01*
X233373D01*
X233436Y204854D01*
X233167Y203500D01*
X233497Y201842D01*
X234436Y200436D01*
X235842Y199497D01*
X237500Y199167D01*
X237752Y199217D01*
X237904Y199113D01*
X237921Y199109D01*
X237936Y199099D01*
X238503Y198986D01*
X239072Y198866D01*
X239089Y198870D01*
X239107Y198866D01*
X239674Y198979D01*
X240245Y199086D01*
X240260Y199096D01*
X240277Y199099D01*
X240759Y199421D01*
X241245Y199737D01*
X241402Y199891D01*
X241447Y199931D01*
X245000D01*
X246366Y200203D01*
X247523Y200977D01*
X260523Y213977D01*
X261297Y215134D01*
X261569Y216500D01*
Y254022D01*
X342023Y334477D01*
X342797Y335634D01*
X343069Y337000D01*
Y425022D01*
X350339Y432292D01*
X350431Y432254D01*
Y418000D01*
X350703Y416634D01*
X351477Y415477D01*
X357531Y409422D01*
Y401954D01*
X357463Y401874D01*
X357337Y401745D01*
X357021Y401259D01*
X356699Y400777D01*
X356696Y400760D01*
X356686Y400745D01*
X356579Y400174D01*
X356466Y399607D01*
X356470Y399589D01*
X356466Y399572D01*
X356586Y399003D01*
X356699Y398436D01*
X356709Y398421D01*
X356713Y398404D01*
X356817Y398252D01*
X356767Y398000D01*
X357097Y396342D01*
X358036Y394936D01*
X359442Y393997D01*
X361100Y393667D01*
X362758Y393997D01*
X364164Y394936D01*
X365103Y396342D01*
X365433Y398000D01*
X365383Y398252D01*
X365487Y398404D01*
X365491Y398421D01*
X365501Y398436D01*
X365614Y399003D01*
X365734Y399572D01*
X365730Y399589D01*
X365734Y399607D01*
X365621Y400174D01*
X365514Y400745D01*
X365504Y400760D01*
X365501Y400777D01*
X365179Y401259D01*
X364863Y401745D01*
X364709Y401902D01*
X364669Y401947D01*
Y410900D01*
X364397Y412266D01*
X363623Y413423D01*
X357569Y419478D01*
Y443454D01*
X357668Y443464D01*
X357781Y442898D01*
X357832Y442639D01*
X358716Y441316D01*
X372572Y427461D01*
Y409914D01*
X372545Y409870D01*
X372249Y409427D01*
X372236Y409362D01*
X372202Y409305D01*
X372120Y408779D01*
X372016Y408257D01*
X372029Y408192D01*
X372019Y408126D01*
X372145Y407608D01*
X372249Y407086D01*
X372286Y407031D01*
X372302Y406966D01*
X372363Y406883D01*
X372317Y406650D01*
X372647Y404992D01*
X373586Y403586D01*
X374992Y402647D01*
X376650Y402317D01*
X378308Y402647D01*
X379714Y403586D01*
X380653Y404992D01*
X380983Y406650D01*
X380937Y406883D01*
X380998Y406966D01*
X381014Y407031D01*
X381051Y407086D01*
X381155Y407608D01*
X381281Y408126D01*
X381271Y408192D01*
X381284Y408257D01*
X381180Y408779D01*
X381099Y409305D01*
X381064Y409362D01*
X381051Y409427D01*
X380755Y409870D01*
X380728Y409914D01*
Y424922D01*
X446311D01*
X447308Y423924D01*
X447320Y423874D01*
X447424Y423352D01*
X447461Y423297D01*
X447477Y423232D01*
X447792Y422802D01*
X448087Y422360D01*
X448143Y422323D01*
X448182Y422269D01*
X448637Y421992D01*
X449080Y421697D01*
X449145Y421684D01*
X449202Y421649D01*
X449304Y421633D01*
X449436Y421436D01*
X450842Y420497D01*
X452500Y420167D01*
X454158Y420497D01*
X455564Y421436D01*
X456503Y422842D01*
X456833Y424500D01*
X456503Y426158D01*
X455564Y427564D01*
X455367Y427696D01*
X455351Y427798D01*
X455316Y427855D01*
X455303Y427920D01*
X455008Y428363D01*
X454731Y428818D01*
X454677Y428857D01*
X454640Y428913D01*
X454198Y429208D01*
X453768Y429523D01*
X453703Y429539D01*
X453648Y429576D01*
X453126Y429680D01*
X453076Y429692D01*
X450884Y431884D01*
X449561Y432768D01*
X449302Y432819D01*
X448000Y433078D01*
X448000Y433078D01*
X438529D01*
X438465Y433156D01*
X438633Y434000D01*
X438303Y435658D01*
X437364Y437064D01*
X435958Y438003D01*
X434300Y438333D01*
X432642Y438003D01*
X431236Y437064D01*
X430297Y435658D01*
X429967Y434000D01*
X430135Y433156D01*
X430071Y433078D01*
X378489D01*
X365678Y445889D01*
Y485911D01*
X379071Y499303D01*
X379107Y499332D01*
X379218Y499408D01*
X379326Y499469D01*
X379432Y499518D01*
X379543Y499558D01*
X379661Y499591D01*
X379793Y499617D01*
X379840Y499622D01*
X452436D01*
X452480Y499595D01*
X452923Y499299D01*
X452988Y499286D01*
X453045Y499252D01*
X453571Y499170D01*
X454093Y499066D01*
X454158Y499079D01*
X454224Y499069D01*
X454742Y499195D01*
X455264Y499299D01*
X455319Y499336D01*
X455384Y499352D01*
X455467Y499413D01*
X455700Y499367D01*
X457358Y499697D01*
X458764Y500636D01*
X459703Y502042D01*
X460033Y503700D01*
X459703Y505358D01*
X458764Y506764D01*
X457358Y507703D01*
X455700Y508033D01*
X455467Y507987D01*
X455384Y508048D01*
X455319Y508064D01*
X455264Y508101D01*
X454742Y508205D01*
X454224Y508331D01*
X454158Y508321D01*
X454093Y508334D01*
X453571Y508230D01*
X453045Y508148D01*
X452988Y508114D01*
X452923Y508101D01*
X452480Y507805D01*
X452436Y507778D01*
X381778D01*
Y522336D01*
X381805Y522380D01*
X382101Y522823D01*
X382114Y522888D01*
X382148Y522945D01*
X382230Y523471D01*
X382334Y523993D01*
X382321Y524058D01*
X382331Y524124D01*
X382205Y524642D01*
X382101Y525164D01*
X382064Y525219D01*
X382048Y525284D01*
X381987Y525367D01*
X382033Y525600D01*
X381804Y526754D01*
X381867Y526831D01*
X411700D01*
X413066Y527103D01*
X414223Y527877D01*
X428023Y541677D01*
X428797Y542834D01*
X428965Y543677D01*
X429010Y543718D01*
X429057Y543781D01*
X429121Y543824D01*
X429411Y544257D01*
X429722Y544676D01*
X429741Y544751D01*
X429784Y544816D01*
X429886Y545327D01*
X430013Y545833D01*
X430002Y545910D01*
X430017Y545987D01*
X429915Y546498D01*
X429839Y547014D01*
X429799Y547081D01*
X429784Y547157D01*
X429739Y547225D01*
X429833Y547700D01*
X429503Y549358D01*
X428564Y550764D01*
X427158Y551703D01*
X425500Y552033D01*
X423842Y551703D01*
X422436Y550764D01*
X421497Y549358D01*
X421167Y547700D01*
X421261Y547225D01*
X421216Y547157D01*
X421201Y547081D01*
X421161Y547014D01*
X421085Y546498D01*
X420983Y545987D01*
X420998Y545910D01*
X420987Y545833D01*
X421114Y545327D01*
X421191Y544938D01*
X410222Y533969D01*
X376660D01*
X376613Y534057D01*
X377003Y534642D01*
X377333Y536300D01*
X377003Y537958D01*
X376064Y539364D01*
X374658Y540303D01*
X373254Y540583D01*
X373225Y540678D01*
X422727Y590180D01*
X434647D01*
X434728Y590112D01*
X434857Y589986D01*
X435342Y589670D01*
X435824Y589347D01*
X435842Y589344D01*
X435857Y589334D01*
X436427Y589228D01*
X436995Y589115D01*
X437012Y589118D01*
X437030Y589115D01*
X437598Y589235D01*
X438165Y589347D01*
X438180Y589357D01*
X438198Y589361D01*
X438350Y589465D01*
X438601Y589415D01*
X440260Y589745D01*
X441666Y590684D01*
X442605Y592090D01*
X442935Y593748D01*
X442605Y595407D01*
X441666Y596813D01*
X440260Y597752D01*
X438601Y598082D01*
X438350Y598032D01*
X438198Y598136D01*
X438180Y598139D01*
X438165Y598149D01*
X437598Y598262D01*
X437030Y598382D01*
X437012Y598379D01*
X436995Y598382D01*
X436427Y598269D01*
X435857Y598163D01*
X435842Y598153D01*
X435824Y598149D01*
X435342Y597827D01*
X434857Y597511D01*
X434700Y597358D01*
X434654Y597317D01*
X421248D01*
X419883Y597045D01*
X418725Y596272D01*
X405261Y582808D01*
X405168Y582846D01*
Y604243D01*
X405606Y604536D01*
X406076Y604830D01*
X406101Y604866D01*
X406138Y604891D01*
X406446Y605352D01*
X406766Y605803D01*
X406776Y605846D01*
X406800Y605883D01*
X406826Y606010D01*
X407164Y606236D01*
X408103Y607642D01*
X408433Y609300D01*
X408103Y610958D01*
X407164Y612364D01*
X405758Y613303D01*
X404100Y613633D01*
X402442Y613303D01*
X401350Y612574D01*
X400258Y613303D01*
X398600Y613633D01*
X396942Y613303D01*
X395850Y612574D01*
X394758Y613303D01*
X393100Y613633D01*
X391442Y613303D01*
X390036Y612364D01*
X389097Y610958D01*
X388767Y609300D01*
X389097Y607642D01*
X390036Y606236D01*
X390374Y606010D01*
X390399Y605883D01*
X390424Y605846D01*
X390434Y605803D01*
X390754Y605352D01*
X391062Y604891D01*
X391099Y604866D01*
X391124Y604830D01*
X391594Y604535D01*
X392031Y604243D01*
Y582378D01*
X364522Y554869D01*
X340815D01*
X339546Y554616D01*
X339469Y554680D01*
Y561818D01*
X339569Y561852D01*
X341211Y559711D01*
X343405Y558028D01*
X345959Y556970D01*
X348700Y556609D01*
X351441Y556970D01*
X353995Y558028D01*
X356189Y559711D01*
X357872Y561905D01*
X358930Y564459D01*
X359291Y567200D01*
X358930Y569941D01*
X357872Y572495D01*
X356189Y574689D01*
X353995Y576372D01*
X351441Y577430D01*
X348700Y577791D01*
X345959Y577430D01*
X343405Y576372D01*
X341211Y574689D01*
X339569Y572548D01*
X339469Y572582D01*
Y587218D01*
X339569Y587252D01*
X341211Y585111D01*
X343405Y583428D01*
X345959Y582370D01*
X348700Y582009D01*
X351441Y582370D01*
X353995Y583428D01*
X356189Y585111D01*
X357872Y587305D01*
X358930Y589859D01*
X359291Y592600D01*
X358930Y595341D01*
X357872Y597895D01*
X356189Y600089D01*
X353995Y601772D01*
X351441Y602830D01*
X348700Y603191D01*
X345959Y602830D01*
X343405Y601772D01*
X341211Y600089D01*
X339531Y597899D01*
X339503Y597896D01*
X339428Y597903D01*
X339197Y599066D01*
X338423Y600223D01*
X332523Y606123D01*
X331366Y606897D01*
X330000Y607169D01*
X308900D01*
X307534Y606897D01*
X306377Y606123D01*
X303964Y603711D01*
X303762Y603634D01*
X303366Y603526D01*
X302808Y603416D01*
X302160Y603327D01*
X299166Y603160D01*
X298143Y603159D01*
X297900Y603191D01*
X295159Y602830D01*
X292605Y601772D01*
X290411Y600089D01*
X288728Y597895D01*
X287670Y595341D01*
X287309Y592600D01*
X287670Y589859D01*
X288728Y587305D01*
X290411Y585111D01*
X290474Y585063D01*
X290442Y584969D01*
X285178D01*
X283610Y586536D01*
X283534Y586738D01*
X283426Y587134D01*
X283316Y587692D01*
X283227Y588340D01*
X283060Y591334D01*
X283059Y592357D01*
X283091Y592600D01*
X282730Y595341D01*
X281672Y597895D01*
X279989Y600089D01*
X277795Y601772D01*
X275241Y602830D01*
X272500Y603191D01*
X269759Y602830D01*
X267205Y601772D01*
X265011Y600089D01*
X263328Y597895D01*
X262270Y595341D01*
X261909Y592600D01*
X262270Y589859D01*
X263328Y587305D01*
X265011Y585111D01*
X267205Y583428D01*
X269759Y582370D01*
X272051Y582069D01*
X272044Y581969D01*
X262778D01*
X258211Y586536D01*
X258134Y586738D01*
X258026Y587134D01*
X257917Y587692D01*
X257827Y588340D01*
X257660Y591334D01*
X257659Y592357D01*
X257691Y592600D01*
X257330Y595341D01*
X256272Y597895D01*
X254589Y600089D01*
X252395Y601772D01*
X249841Y602830D01*
X247100Y603191D01*
X244359Y602830D01*
X241805Y601772D01*
X239611Y600089D01*
X237928Y597895D01*
X236870Y595341D01*
X236509Y592600D01*
X236870Y589859D01*
X237928Y587305D01*
X239611Y585111D01*
X241805Y583428D01*
X244359Y582370D01*
X247100Y582009D01*
X247327Y582039D01*
X249494Y582011D01*
X251334Y581876D01*
X252008Y581783D01*
X252566Y581674D01*
X252962Y581566D01*
X253164Y581489D01*
X258777Y575877D01*
X259934Y575103D01*
X261300Y574831D01*
X265042D01*
X265074Y574737D01*
X265011Y574689D01*
X263328Y572495D01*
X262270Y569941D01*
X261909Y567200D01*
X262270Y564459D01*
X263328Y561905D01*
X265011Y559711D01*
X267205Y558028D01*
X269759Y556970D01*
X269915Y556950D01*
X270453Y556783D01*
X271144Y556525D01*
X271700Y556273D01*
X272116Y556039D01*
X272393Y555843D01*
X272531Y555717D01*
Y546946D01*
X272439Y546908D01*
X258211Y561136D01*
X258134Y561338D01*
X258026Y561734D01*
X257917Y562292D01*
X257827Y562940D01*
X257660Y565934D01*
X257659Y566957D01*
X257691Y567200D01*
X257330Y569941D01*
X256272Y572495D01*
X254589Y574689D01*
X252395Y576372D01*
X249841Y577430D01*
X247100Y577791D01*
X244359Y577430D01*
X241805Y576372D01*
X239611Y574689D01*
X237928Y572495D01*
X236870Y569941D01*
X236509Y567200D01*
X236870Y564459D01*
X237928Y561905D01*
X239611Y559711D01*
X241805Y558028D01*
X244359Y556970D01*
X247100Y556609D01*
X247327Y556639D01*
X249494Y556611D01*
X251334Y556477D01*
X252008Y556384D01*
X252566Y556274D01*
X252962Y556166D01*
X253164Y556090D01*
X268931Y540322D01*
Y404106D01*
X268854Y404043D01*
X268400Y404133D01*
X268146Y404083D01*
X268069Y404146D01*
Y524400D01*
X267797Y525766D01*
X267023Y526923D01*
X232200Y561747D01*
Y577700D01*
X214069D01*
Y579922D01*
X215636Y581489D01*
X215838Y581566D01*
X216234Y581674D01*
X216792Y581783D01*
X217440Y581873D01*
X220434Y582040D01*
X221457Y582041D01*
X221700Y582009D01*
X224441Y582370D01*
X226995Y583428D01*
X229189Y585111D01*
X230872Y587305D01*
X231930Y589859D01*
X232291Y592600D01*
X231930Y595341D01*
X230872Y597895D01*
X229189Y600089D01*
X226995Y601772D01*
X224441Y602830D01*
X221700Y603191D01*
X218959Y602830D01*
X216405Y601772D01*
X214211Y600089D01*
X212528Y597895D01*
X211470Y595341D01*
X211109Y592600D01*
X211139Y592373D01*
X211111Y590206D01*
X210977Y588366D01*
X210884Y587692D01*
X210774Y587134D01*
X210666Y586738D01*
X210590Y586536D01*
X207977Y583923D01*
X207203Y582766D01*
X206931Y581400D01*
Y557500D01*
X207203Y556134D01*
X207977Y554977D01*
X256831Y506122D01*
Y503019D01*
X256732Y503009D01*
X256503Y504158D01*
X255564Y505564D01*
X254158Y506503D01*
X252500Y506833D01*
X250842Y506503D01*
X249436Y505564D01*
X249293Y505351D01*
X249112Y505317D01*
X249097Y505307D01*
X249080Y505303D01*
X248599Y504982D01*
X248112Y504665D01*
X248102Y504650D01*
X248087Y504640D01*
X247766Y504159D01*
X247438Y503681D01*
X247434Y503663D01*
X247424Y503648D01*
X247311Y503079D01*
X247192Y502513D01*
X247189Y502293D01*
X247185Y502232D01*
X230977Y486023D01*
X230203Y484866D01*
X229931Y483500D01*
Y426568D01*
X169692D01*
X169654Y426661D01*
X169993Y427000D01*
X169101D01*
X169091Y427099D01*
X170341Y427348D01*
X172326Y428674D01*
X181326Y437674D01*
X182652Y439659D01*
X183118Y442000D01*
Y587466D01*
X212034Y616382D01*
X437466D01*
X453674Y600174D01*
X455659Y598848D01*
X458000Y598382D01*
X503166D01*
X513582Y587966D01*
Y585500D01*
X514048Y583159D01*
X515374Y581174D01*
X517359Y579848D01*
X519700Y579383D01*
X522041Y579848D01*
X524026Y581174D01*
X525352Y583159D01*
X525817Y585500D01*
Y590500D01*
X525352Y592841D01*
X524026Y594826D01*
X510026Y608826D01*
X508041Y610152D01*
X505700Y610617D01*
X460534D01*
X444326Y626826D01*
X442341Y628152D01*
X440000Y628618D01*
D02*
G37*
G36*
X508500Y482940D02*
X505759Y482580D01*
X503205Y481522D01*
X501011Y479839D01*
X499328Y477645D01*
X498270Y475091D01*
X497909Y472350D01*
X498270Y469609D01*
X499328Y467055D01*
X501011Y464861D01*
X503205Y463178D01*
X505759Y462120D01*
X508500Y461759D01*
X511241Y462120D01*
X513795Y463178D01*
X515989Y464861D01*
X517672Y467055D01*
X518730Y469609D01*
X519091Y472350D01*
X518730Y475091D01*
X517672Y477645D01*
X515989Y479839D01*
X513795Y481522D01*
X511241Y482580D01*
X508500Y482940D01*
D02*
G37*
G36*
X455600Y468333D02*
X453942Y468003D01*
X452536Y467064D01*
X451597Y465658D01*
X451267Y464000D01*
X451597Y462342D01*
X452536Y460936D01*
X453942Y459997D01*
X455600Y459667D01*
X457258Y459997D01*
X458664Y460936D01*
X459603Y462342D01*
X459933Y464000D01*
X459603Y465658D01*
X458664Y467064D01*
X457258Y468003D01*
X455600Y468333D01*
D02*
G37*
G36*
X141800Y466700D02*
X133300D01*
Y458200D01*
X141800D01*
Y466700D01*
D02*
G37*
G36*
X101600Y518591D02*
X98859Y518230D01*
X96305Y517172D01*
X94111Y515489D01*
X92428Y513295D01*
X91370Y510741D01*
X91009Y508000D01*
X91370Y505259D01*
X92428Y502705D01*
X94111Y500511D01*
X96305Y498828D01*
X98859Y497770D01*
X101600Y497409D01*
X104341Y497770D01*
X106895Y498828D01*
X109089Y500511D01*
X110772Y502705D01*
X111830Y505259D01*
X112191Y508000D01*
X111830Y510741D01*
X110772Y513295D01*
X109089Y515489D01*
X106895Y517172D01*
X104341Y518230D01*
X101600Y518591D01*
D02*
G37*
G36*
X157700Y543991D02*
X154959Y543630D01*
X152405Y542572D01*
X150211Y540889D01*
X148528Y538695D01*
X147470Y536141D01*
X147109Y533400D01*
X147470Y530659D01*
X148528Y528105D01*
X150211Y525911D01*
X152405Y524228D01*
X154959Y523170D01*
X157700Y522809D01*
X160441Y523170D01*
X162995Y524228D01*
X165189Y525911D01*
X166872Y528105D01*
X167930Y530659D01*
X168291Y533400D01*
X167930Y536141D01*
X166872Y538695D01*
X165189Y540889D01*
X162995Y542572D01*
X160441Y543630D01*
X157700Y543991D01*
D02*
G37*
G36*
X25400Y565192D02*
X21675Y564825D01*
X18094Y563739D01*
X14793Y561974D01*
X11900Y559600D01*
X9526Y556707D01*
X7761Y553406D01*
X6675Y549825D01*
X6308Y546100D01*
X6675Y542375D01*
X7761Y538794D01*
X9526Y535493D01*
X11900Y532600D01*
X14793Y530226D01*
X18094Y528461D01*
X21675Y527375D01*
X25400Y527008D01*
X29125Y527375D01*
X32706Y528461D01*
X36007Y530226D01*
X38900Y532600D01*
X41274Y535493D01*
X43039Y538794D01*
X44125Y542375D01*
X44492Y546100D01*
X44125Y549825D01*
X43039Y553406D01*
X41274Y556707D01*
X38900Y559600D01*
X36007Y561974D01*
X32706Y563739D01*
X29125Y564825D01*
X25400Y565192D01*
D02*
G37*
G36*
X508000Y552492D02*
X504275Y552125D01*
X500694Y551039D01*
X497393Y549274D01*
X494500Y546900D01*
X492126Y544007D01*
X490361Y540706D01*
X489275Y537125D01*
X488908Y533400D01*
X489275Y529675D01*
X490361Y526094D01*
X492126Y522793D01*
X494500Y519900D01*
X497393Y517526D01*
X500694Y515761D01*
X504275Y514675D01*
X508000Y514308D01*
X511725Y514675D01*
X515306Y515761D01*
X518607Y517526D01*
X521500Y519900D01*
X523874Y522793D01*
X525639Y526094D01*
X526725Y529675D01*
X527092Y533400D01*
X526725Y537125D01*
X525639Y540706D01*
X523874Y544007D01*
X521500Y546900D01*
X518607Y549274D01*
X515306Y551039D01*
X511725Y552125D01*
X508000Y552492D01*
D02*
G37*
G36*
X76200Y543991D02*
X73459Y543630D01*
X70905Y542572D01*
X68711Y540889D01*
X67028Y538695D01*
X65970Y536141D01*
X65609Y533400D01*
X65970Y530659D01*
X67028Y528105D01*
X68711Y525911D01*
X70905Y524228D01*
X73459Y523170D01*
X76200Y522809D01*
X78941Y523170D01*
X81495Y524228D01*
X83689Y525911D01*
X85372Y528105D01*
X86430Y530659D01*
X86791Y533400D01*
X86430Y536141D01*
X85372Y538695D01*
X83689Y540889D01*
X81495Y542572D01*
X78941Y543630D01*
X76200Y543991D01*
D02*
G37*
G36*
X101600D02*
X98859Y543630D01*
X96305Y542572D01*
X94111Y540889D01*
X92428Y538695D01*
X91370Y536141D01*
X91009Y533400D01*
X91370Y530659D01*
X92428Y528105D01*
X94111Y525911D01*
X96305Y524228D01*
X98859Y523170D01*
X101600Y522809D01*
X104341Y523170D01*
X106895Y524228D01*
X109089Y525911D01*
X110772Y528105D01*
X111830Y530659D01*
X112191Y533400D01*
X111830Y536141D01*
X110772Y538695D01*
X109089Y540889D01*
X106895Y542572D01*
X104341Y543630D01*
X101600Y543991D01*
D02*
G37*
G36*
X132300D02*
X129559Y543630D01*
X127005Y542572D01*
X124811Y540889D01*
X123128Y538695D01*
X122070Y536141D01*
X121709Y533400D01*
X122070Y530659D01*
X123128Y528105D01*
X124811Y525911D01*
X127005Y524228D01*
X129559Y523170D01*
X132300Y522809D01*
X135041Y523170D01*
X137595Y524228D01*
X139789Y525911D01*
X141472Y528105D01*
X142530Y530659D01*
X142891Y533400D01*
X142530Y536141D01*
X141472Y538695D01*
X139789Y540889D01*
X137595Y542572D01*
X135041Y543630D01*
X132300Y543991D01*
D02*
G37*
G36*
X385500Y545133D02*
X383842Y544803D01*
X382436Y543864D01*
X381497Y542458D01*
X381167Y540800D01*
X381497Y539142D01*
X382436Y537736D01*
X383842Y536797D01*
X385500Y536467D01*
X387158Y536797D01*
X388564Y537736D01*
X389503Y539142D01*
X389833Y540800D01*
X389503Y542458D01*
X388564Y543864D01*
X387158Y544803D01*
X385500Y545133D01*
D02*
G37*
G36*
X205550Y517750D02*
X186050D01*
Y498250D01*
X205550D01*
Y517750D01*
D02*
G37*
G36*
X157700Y518591D02*
X154959Y518230D01*
X152405Y517172D01*
X150211Y515489D01*
X148528Y513295D01*
X147470Y510741D01*
X147109Y508000D01*
X147470Y505259D01*
X148528Y502705D01*
X150211Y500511D01*
X152405Y498828D01*
X154959Y497770D01*
X157700Y497409D01*
X160441Y497770D01*
X162995Y498828D01*
X165189Y500511D01*
X166872Y502705D01*
X167930Y505259D01*
X168291Y508000D01*
X167930Y510741D01*
X166872Y513295D01*
X165189Y515489D01*
X162995Y517172D01*
X160441Y518230D01*
X157700Y518591D01*
D02*
G37*
G36*
X132300D02*
X129559Y518230D01*
X127005Y517172D01*
X124811Y515489D01*
X123128Y513295D01*
X122070Y510741D01*
X121709Y508000D01*
X122070Y505259D01*
X123128Y502705D01*
X124811Y500511D01*
X127005Y498828D01*
X129559Y497770D01*
X132300Y497409D01*
X135041Y497770D01*
X137595Y498828D01*
X139789Y500511D01*
X141472Y502705D01*
X142530Y505259D01*
X142891Y508000D01*
X142530Y510741D01*
X141472Y513295D01*
X139789Y515489D01*
X137595Y517172D01*
X135041Y518230D01*
X132300Y518591D01*
D02*
G37*
G36*
X462700Y545433D02*
X461042Y545103D01*
X459636Y544164D01*
X458697Y542758D01*
X458367Y541100D01*
X458697Y539442D01*
X459636Y538036D01*
X461042Y537097D01*
X462700Y536767D01*
X464358Y537097D01*
X465764Y538036D01*
X466703Y539442D01*
X467033Y541100D01*
X466703Y542758D01*
X465764Y544164D01*
X464358Y545103D01*
X462700Y545433D01*
D02*
G37*
G36*
X465400Y512533D02*
X463742Y512203D01*
X462336Y511264D01*
X461397Y509858D01*
X461067Y508200D01*
X461397Y506542D01*
X462336Y505136D01*
X463742Y504197D01*
X465400Y503867D01*
X467058Y504197D01*
X468464Y505136D01*
X469403Y506542D01*
X469733Y508200D01*
X469403Y509858D01*
X468464Y511264D01*
X467058Y512203D01*
X465400Y512533D01*
D02*
G37*
G36*
X416700Y564533D02*
X415042Y564203D01*
X413636Y563264D01*
X412697Y561858D01*
X412367Y560200D01*
X412697Y558542D01*
X413636Y557136D01*
X415042Y556197D01*
X416700Y555867D01*
X418358Y556197D01*
X419764Y557136D01*
X420703Y558542D01*
X421033Y560200D01*
X420703Y561858D01*
X419764Y563264D01*
X418358Y564203D01*
X416700Y564533D01*
D02*
G37*
G36*
X211100Y455333D02*
X209442Y455003D01*
X208036Y454064D01*
X207097Y452658D01*
X206767Y451000D01*
X207097Y449342D01*
X208036Y447936D01*
X209442Y446997D01*
X211100Y446667D01*
X212758Y446997D01*
X214164Y447936D01*
X215103Y449342D01*
X215433Y451000D01*
X215103Y452658D01*
X214164Y454064D01*
X212758Y455003D01*
X211100Y455333D01*
D02*
G37*
G36*
X157700Y467791D02*
X154959Y467430D01*
X152405Y466372D01*
X150211Y464689D01*
X148528Y462495D01*
X147470Y459941D01*
X147109Y457200D01*
X147470Y454459D01*
X148528Y451905D01*
X150211Y449711D01*
X152405Y448028D01*
X154959Y446970D01*
X157700Y446609D01*
X160441Y446970D01*
X162995Y448028D01*
X165189Y449711D01*
X166872Y451905D01*
X167930Y454459D01*
X168291Y457200D01*
X167930Y459941D01*
X166872Y462495D01*
X165189Y464689D01*
X162995Y466372D01*
X160441Y467430D01*
X157700Y467791D01*
D02*
G37*
G36*
X101600D02*
X98859Y467430D01*
X96305Y466372D01*
X94111Y464689D01*
X92428Y462495D01*
X91370Y459941D01*
X91009Y457200D01*
X91370Y454459D01*
X92428Y451905D01*
X94111Y449711D01*
X96305Y448028D01*
X98859Y446970D01*
X101600Y446609D01*
X104341Y446970D01*
X106895Y448028D01*
X109089Y449711D01*
X110772Y451905D01*
X111830Y454459D01*
X112191Y457200D01*
X111830Y459941D01*
X110772Y462495D01*
X109089Y464689D01*
X106895Y466372D01*
X104341Y467430D01*
X101600Y467791D01*
D02*
G37*
G36*
X131300Y456200D02*
X122800D01*
Y447700D01*
X131300D01*
Y456200D01*
D02*
G37*
G36*
X85700D02*
X77200D01*
Y447700D01*
X85700D01*
Y456200D01*
D02*
G37*
G36*
X75200D02*
X66700D01*
Y447700D01*
X75200D01*
Y456200D01*
D02*
G37*
G36*
X56900Y618253D02*
X55242Y617923D01*
X53836Y616984D01*
X52897Y615578D01*
X52567Y613920D01*
X52897Y612262D01*
X53836Y610856D01*
X55242Y609917D01*
X56900Y609587D01*
X58558Y609917D01*
X59964Y610856D01*
X60903Y612262D01*
X61233Y613920D01*
X60903Y615578D01*
X59964Y616984D01*
X58558Y617923D01*
X56900Y618253D01*
D02*
G37*
G36*
X405900Y657933D02*
X404242Y657603D01*
X402836Y656664D01*
X401897Y655258D01*
X401567Y653600D01*
X401897Y651942D01*
X402836Y650536D01*
X404242Y649597D01*
X405900Y649267D01*
X407558Y649597D01*
X408964Y650536D01*
X409903Y651942D01*
X410233Y653600D01*
X409903Y655258D01*
X408964Y656664D01*
X407558Y657603D01*
X405900Y657933D01*
D02*
G37*
G36*
X20000Y679669D02*
X16410Y679196D01*
X13066Y677811D01*
X10193Y675607D01*
X7989Y672734D01*
X6604Y669389D01*
X6131Y665800D01*
X6604Y662210D01*
X7989Y658866D01*
X10193Y655993D01*
X13066Y653789D01*
X16410Y652404D01*
X20000Y651931D01*
X23589Y652404D01*
X26934Y653789D01*
X29807Y655993D01*
X32011Y658866D01*
X33396Y662210D01*
X33869Y665800D01*
X33396Y669389D01*
X32011Y672734D01*
X29807Y675607D01*
X26934Y677811D01*
X23589Y679196D01*
X20000Y679669D01*
D02*
G37*
G36*
X133770Y667603D02*
X132112Y667273D01*
X130706Y666334D01*
X129767Y664928D01*
X129437Y663270D01*
X129767Y661612D01*
X130706Y660206D01*
X132112Y659267D01*
X133770Y658937D01*
X135428Y659267D01*
X136834Y660206D01*
X137774Y661612D01*
X138103Y663270D01*
X137774Y664928D01*
X136834Y666334D01*
X135428Y667273D01*
X133770Y667603D01*
D02*
G37*
G36*
X508500Y457541D02*
X505759Y457180D01*
X503205Y456122D01*
X501011Y454439D01*
X499328Y452245D01*
X498270Y449691D01*
X497909Y446950D01*
X498270Y444209D01*
X499328Y441655D01*
X501011Y439461D01*
X503205Y437778D01*
X505759Y436720D01*
X508500Y436359D01*
X511241Y436720D01*
X513795Y437778D01*
X515989Y439461D01*
X517672Y441655D01*
X518730Y444209D01*
X519091Y446950D01*
X518730Y449691D01*
X517672Y452245D01*
X515989Y454439D01*
X513795Y456122D01*
X511241Y457180D01*
X508500Y457541D01*
D02*
G37*
G36*
X484500Y439334D02*
X482842Y439004D01*
X481436Y438064D01*
X480497Y436659D01*
X480167Y435000D01*
X480497Y433342D01*
X481436Y431936D01*
X482842Y430997D01*
X484500Y430667D01*
X486159Y430997D01*
X487564Y431936D01*
X488504Y433342D01*
X488834Y435000D01*
X488504Y436659D01*
X487564Y438064D01*
X486159Y439004D01*
X484500Y439334D01*
D02*
G37*
G36*
X60150Y436333D02*
X58492Y436003D01*
X57086Y435064D01*
X56147Y433658D01*
X55817Y432000D01*
X56147Y430342D01*
X57086Y428936D01*
X58492Y427997D01*
X60150Y427667D01*
X61808Y427997D01*
X63214Y428936D01*
X64153Y430342D01*
X64483Y432000D01*
X64153Y433658D01*
X63214Y435064D01*
X61808Y436003D01*
X60150Y436333D01*
D02*
G37*
G36*
X141800Y456200D02*
X133300D01*
Y447700D01*
X141800D01*
Y456200D01*
D02*
G37*
G36*
X75200Y466700D02*
X66700D01*
Y458200D01*
X75200D01*
Y466700D01*
D02*
G37*
%LPD*%
G36*
X185301Y23547D02*
X185480Y20345D01*
X185598Y19488D01*
X185746Y18736D01*
X185922Y18090D01*
X186128Y17548D01*
X186363Y17111D01*
X186627Y16780D01*
X185920Y16073D01*
X185589Y16337D01*
X185152Y16572D01*
X184610Y16778D01*
X183964Y16954D01*
X183212Y17102D01*
X182355Y17220D01*
X180325Y17369D01*
X177875Y17400D01*
X185300Y24825D01*
X185301Y23547D01*
D02*
G37*
G36*
X203748Y61862D02*
X203890Y61387D01*
X204128Y60859D01*
X204460Y60277D01*
X204888Y59641D01*
X205410Y58951D01*
X206740Y57411D01*
X208450Y55656D01*
X197950D01*
X198853Y56560D01*
X200990Y58951D01*
X201513Y59641D01*
X201940Y60277D01*
X202272Y60859D01*
X202510Y61387D01*
X202652Y61862D01*
X202700Y62283D01*
X203700D01*
X203748Y61862D01*
D02*
G37*
G36*
X237427Y33020D02*
X237163Y32689D01*
X236928Y32252D01*
X236722Y31710D01*
X236546Y31064D01*
X236398Y30312D01*
X236280Y29455D01*
X236131Y27425D01*
X236100Y24975D01*
X228675Y32400D01*
X229953Y32401D01*
X233155Y32580D01*
X234012Y32698D01*
X234764Y32846D01*
X235410Y33022D01*
X235952Y33228D01*
X236389Y33463D01*
X236720Y33727D01*
X237427Y33020D01*
D02*
G37*
G36*
X426776Y545822D02*
X426613Y545654D01*
X426470Y545483D01*
X426345Y545309D01*
X426240Y545132D01*
X426153Y544952D01*
X426086Y544769D01*
X426038Y544582D01*
X426010Y544393D01*
X426000Y544200D01*
X425000D01*
X424990Y544393D01*
X424962Y544582D01*
X424914Y544769D01*
X424847Y544952D01*
X424760Y545132D01*
X424655Y545309D01*
X424530Y545483D01*
X424387Y545654D01*
X424224Y545822D01*
X424042Y545987D01*
X426958D01*
X426776Y545822D01*
D02*
G37*
G36*
X212027Y33020D02*
X211763Y32689D01*
X211528Y32252D01*
X211322Y31710D01*
X211146Y31064D01*
X210998Y30312D01*
X210880Y29455D01*
X210731Y27425D01*
X210700Y24975D01*
X203275Y32400D01*
X204553Y32401D01*
X207755Y32580D01*
X208612Y32698D01*
X209364Y32846D01*
X210010Y33022D01*
X210552Y33228D01*
X210989Y33463D01*
X211320Y33727D01*
X212027Y33020D01*
D02*
G37*
G36*
X436995Y592173D02*
X436786Y592378D01*
X436378Y592722D01*
X436179Y592862D01*
X435984Y592980D01*
X435792Y593076D01*
X435603Y593152D01*
X435418Y593205D01*
X435236Y593238D01*
X435058Y593248D01*
Y594248D01*
X435236Y594259D01*
X435418Y594291D01*
X435603Y594345D01*
X435792Y594421D01*
X435984Y594517D01*
X436179Y594635D01*
X436378Y594775D01*
X436580Y594936D01*
X436786Y595119D01*
X436995Y595323D01*
Y592173D01*
D02*
G37*
G36*
X200816Y199871D02*
X201224Y199527D01*
X201423Y199387D01*
X201618Y199269D01*
X201810Y199172D01*
X201999Y199097D01*
X202184Y199043D01*
X202365Y199011D01*
X202544Y199000D01*
Y198000D01*
X202365Y197989D01*
X202184Y197957D01*
X201999Y197903D01*
X201810Y197828D01*
X201618Y197731D01*
X201423Y197613D01*
X201224Y197473D01*
X201021Y197312D01*
X200816Y197129D01*
X200607Y196925D01*
Y200075D01*
X200816Y199871D01*
D02*
G37*
G36*
X221625Y585100D02*
X220347Y585099D01*
X217145Y584920D01*
X216288Y584802D01*
X215536Y584655D01*
X214890Y584478D01*
X214348Y584272D01*
X213911Y584037D01*
X213580Y583773D01*
X212873Y584480D01*
X213137Y584811D01*
X213372Y585248D01*
X213578Y585790D01*
X213755Y586436D01*
X213902Y587188D01*
X214020Y588045D01*
X214169Y590075D01*
X214200Y592525D01*
X221625Y585100D01*
D02*
G37*
G36*
X239316Y204871D02*
X239724Y204527D01*
X239923Y204387D01*
X240118Y204269D01*
X240310Y204172D01*
X240499Y204097D01*
X240684Y204043D01*
X240865Y204011D01*
X241044Y204000D01*
Y203000D01*
X240865Y202989D01*
X240684Y202957D01*
X240499Y202903D01*
X240310Y202828D01*
X240118Y202731D01*
X239923Y202613D01*
X239724Y202473D01*
X239522Y202312D01*
X239316Y202129D01*
X239107Y201925D01*
Y205075D01*
X239316Y204871D01*
D02*
G37*
G36*
X280001Y591247D02*
X280180Y588045D01*
X280298Y587188D01*
X280446Y586436D01*
X280622Y585790D01*
X280828Y585248D01*
X281063Y584811D01*
X281327Y584480D01*
X280620Y583773D01*
X280289Y584037D01*
X279852Y584272D01*
X279310Y584478D01*
X278664Y584655D01*
X277912Y584802D01*
X277055Y584920D01*
X275025Y585069D01*
X272575Y585100D01*
X280000Y592525D01*
X280001Y591247D01*
D02*
G37*
G36*
X229113Y561067D02*
X229085Y560975D01*
Y560869D01*
X229113Y560749D01*
X229170Y560614D01*
X229254Y560466D01*
X229368Y560303D01*
X229509Y560126D01*
X229877Y559730D01*
X229170Y559023D01*
X228965Y559221D01*
X228597Y559533D01*
X228434Y559646D01*
X228286Y559730D01*
X228151Y559787D01*
X228031Y559815D01*
X227925D01*
X227833Y559787D01*
X227755Y559730D01*
X229170Y561145D01*
X229113Y561067D01*
D02*
G37*
G36*
X254601Y591247D02*
X254780Y588045D01*
X254898Y587188D01*
X255046Y586436D01*
X255222Y585790D01*
X255428Y585248D01*
X255663Y584811D01*
X255927Y584480D01*
X255220Y583773D01*
X254889Y584037D01*
X254452Y584272D01*
X253910Y584478D01*
X253264Y584655D01*
X252512Y584802D01*
X251655Y584920D01*
X249625Y585069D01*
X247175Y585100D01*
X254600Y592525D01*
X254601Y591247D01*
D02*
G37*
G36*
X252471Y146384D02*
X252127Y145976D01*
X251987Y145778D01*
X251869Y145582D01*
X251772Y145390D01*
X251697Y145202D01*
X251643Y145016D01*
X251611Y144835D01*
X251600Y144656D01*
X250600D01*
X250589Y144835D01*
X250557Y145016D01*
X250503Y145202D01*
X250428Y145390D01*
X250331Y145582D01*
X250213Y145778D01*
X250073Y145976D01*
X249912Y146179D01*
X249729Y146384D01*
X249525Y146593D01*
X252675D01*
X252471Y146384D01*
D02*
G37*
G36*
X357371D02*
X357027Y145976D01*
X356887Y145778D01*
X356769Y145582D01*
X356672Y145390D01*
X356597Y145202D01*
X356543Y145016D01*
X356511Y144835D01*
X356500Y144656D01*
X355500D01*
X355489Y144835D01*
X355457Y145016D01*
X355403Y145202D01*
X355328Y145390D01*
X355231Y145582D01*
X355113Y145778D01*
X354973Y145976D01*
X354812Y146179D01*
X354629Y146384D01*
X354425Y146593D01*
X357575D01*
X357371Y146384D01*
D02*
G37*
G36*
X399971Y607484D02*
X399627Y607076D01*
X399487Y606878D01*
X399369Y606682D01*
X399272Y606490D01*
X399197Y606301D01*
X399143Y606116D01*
X399111Y605935D01*
X399100Y605756D01*
X398100D01*
X398089Y605935D01*
X398057Y606116D01*
X398003Y606301D01*
X397928Y606490D01*
X397831Y606682D01*
X397713Y606878D01*
X397573Y607076D01*
X397412Y607279D01*
X397229Y607484D01*
X397025Y607693D01*
X400175D01*
X399971Y607484D01*
D02*
G37*
G36*
X395339Y608913D02*
X395347Y608665D01*
X395370Y608430D01*
X395408Y608208D01*
X395461Y608000D01*
X395529Y607804D01*
X395612Y607622D01*
X395711Y607453D01*
X395825Y607296D01*
X395953Y607154D01*
X395247Y606446D01*
X395103Y606575D01*
X394947Y606689D01*
X394778Y606787D01*
X394596Y606871D01*
X394400Y606939D01*
X394192Y606992D01*
X393970Y607030D01*
X393735Y607053D01*
X393487Y607061D01*
X393225Y607053D01*
X395346Y609175D01*
X395339Y608913D01*
D02*
G37*
G36*
X276600Y556420D02*
X275600Y555871D01*
X275549Y556391D01*
X275395Y556887D01*
X275138Y557359D01*
X274778Y557807D01*
X274316Y558230D01*
X273752Y558629D01*
X273084Y559003D01*
X272314Y559354D01*
X271441Y559680D01*
X270465Y559981D01*
X279592Y564761D01*
X276600Y556420D01*
D02*
G37*
G36*
X403975Y607053D02*
X403713Y607061D01*
X403465Y607053D01*
X403230Y607030D01*
X403008Y606992D01*
X402800Y606939D01*
X402604Y606871D01*
X402422Y606787D01*
X402253Y606689D01*
X402096Y606575D01*
X401954Y606446D01*
X401246Y607154D01*
X401375Y607296D01*
X401489Y607453D01*
X401587Y607622D01*
X401671Y607804D01*
X401739Y608000D01*
X401792Y608208D01*
X401830Y608430D01*
X401853Y608665D01*
X401861Y608913D01*
X401853Y609175D01*
X403975Y607053D01*
D02*
G37*
G36*
X306727Y600720D02*
X306463Y600389D01*
X306228Y599952D01*
X306022Y599410D01*
X305846Y598764D01*
X305698Y598012D01*
X305580Y597155D01*
X305431Y595125D01*
X305400Y592675D01*
X297975Y600100D01*
X299253Y600101D01*
X302455Y600280D01*
X303312Y600398D01*
X304064Y600546D01*
X304710Y600722D01*
X305252Y600928D01*
X305689Y601163D01*
X306020Y601427D01*
X306727Y600720D01*
D02*
G37*
G36*
X247471Y150684D02*
X247127Y150276D01*
X246987Y150077D01*
X246869Y149882D01*
X246772Y149690D01*
X246697Y149502D01*
X246643Y149316D01*
X246611Y149135D01*
X246600Y148956D01*
X245600D01*
X245589Y149135D01*
X245557Y149316D01*
X245503Y149502D01*
X245428Y149690D01*
X245331Y149882D01*
X245213Y150077D01*
X245073Y150276D01*
X244912Y150478D01*
X244729Y150684D01*
X244525Y150893D01*
X247675D01*
X247471Y150684D01*
D02*
G37*
G36*
X257471D02*
X257127Y150276D01*
X256987Y150077D01*
X256869Y149882D01*
X256772Y149690D01*
X256697Y149502D01*
X256643Y149316D01*
X256611Y149135D01*
X256600Y148956D01*
X255600D01*
X255589Y149135D01*
X255557Y149316D01*
X255503Y149502D01*
X255428Y149690D01*
X255331Y149882D01*
X255213Y150077D01*
X255073Y150276D01*
X254912Y150478D01*
X254729Y150684D01*
X254525Y150893D01*
X257675D01*
X257471Y150684D01*
D02*
G37*
G36*
X352371D02*
X352027Y150276D01*
X351887Y150077D01*
X351769Y149882D01*
X351672Y149690D01*
X351597Y149502D01*
X351543Y149316D01*
X351511Y149135D01*
X351500Y148956D01*
X350500D01*
X350489Y149135D01*
X350457Y149316D01*
X350403Y149502D01*
X350328Y149690D01*
X350231Y149882D01*
X350113Y150077D01*
X349973Y150276D01*
X349812Y150478D01*
X349629Y150684D01*
X349425Y150893D01*
X352575D01*
X352371Y150684D01*
D02*
G37*
G36*
X254601Y565847D02*
X254780Y562645D01*
X254898Y561788D01*
X255046Y561036D01*
X255222Y560390D01*
X255428Y559848D01*
X255663Y559411D01*
X255927Y559080D01*
X255220Y558373D01*
X254889Y558637D01*
X254452Y558872D01*
X253910Y559078D01*
X253264Y559254D01*
X252512Y559402D01*
X251655Y559520D01*
X249625Y559669D01*
X247175Y559700D01*
X254600Y567125D01*
X254601Y565847D01*
D02*
G37*
G36*
X297825Y559700D02*
X296547Y559699D01*
X293345Y559520D01*
X292488Y559402D01*
X291736Y559254D01*
X291090Y559078D01*
X290548Y558872D01*
X290111Y558637D01*
X289780Y558373D01*
X289073Y559080D01*
X289337Y559411D01*
X289572Y559848D01*
X289778Y560390D01*
X289954Y561036D01*
X290102Y561788D01*
X290220Y562645D01*
X290369Y564675D01*
X290400Y567125D01*
X297825Y559700D01*
D02*
G37*
G36*
X260260Y54647D02*
X262651Y52510D01*
X263341Y51988D01*
X263977Y51560D01*
X264559Y51227D01*
X265087Y50990D01*
X265562Y50848D01*
X265983Y50800D01*
Y49800D01*
X265562Y49752D01*
X265087Y49610D01*
X264559Y49373D01*
X263977Y49040D01*
X263341Y48612D01*
X262651Y48090D01*
X261111Y46760D01*
X259356Y45050D01*
Y55550D01*
X260260Y54647D01*
D02*
G37*
G36*
X303111Y348665D02*
X303143Y348483D01*
X303197Y348298D01*
X303272Y348110D01*
X303369Y347918D01*
X303487Y347722D01*
X303627Y347523D01*
X303788Y347321D01*
X303971Y347116D01*
X304175Y346907D01*
X301025Y346907D01*
X301229Y347116D01*
X301573Y347523D01*
X301713Y347722D01*
X301831Y347918D01*
X301928Y348110D01*
X302003Y348298D01*
X302057Y348483D01*
X302089Y348665D01*
X302100Y348843D01*
X303100D01*
X303111Y348665D01*
D02*
G37*
G36*
X322111Y344365D02*
X322143Y344183D01*
X322197Y343998D01*
X322272Y343810D01*
X322369Y343618D01*
X322487Y343422D01*
X322627Y343223D01*
X322788Y343021D01*
X322971Y342816D01*
X323175Y342607D01*
X320025D01*
X320229Y342816D01*
X320573Y343223D01*
X320713Y343422D01*
X320831Y343618D01*
X320928Y343810D01*
X321003Y343998D01*
X321057Y344183D01*
X321089Y344365D01*
X321100Y344543D01*
X322100D01*
X322111Y344365D01*
D02*
G37*
G36*
X281611Y348665D02*
X281643Y348483D01*
X281697Y348298D01*
X281772Y348110D01*
X281869Y347918D01*
X281987Y347722D01*
X282127Y347523D01*
X282288Y347321D01*
X282471Y347116D01*
X282675Y346907D01*
X279525D01*
X279729Y347116D01*
X280073Y347523D01*
X280213Y347722D01*
X280331Y347918D01*
X280428Y348110D01*
X280503Y348298D01*
X280557Y348483D01*
X280589Y348665D01*
X280600Y348843D01*
X281600D01*
X281611Y348665D01*
D02*
G37*
G36*
X271611D02*
X271643Y348483D01*
X271697Y348298D01*
X271772Y348110D01*
X271869Y347918D01*
X271987Y347722D01*
X272127Y347523D01*
X272288Y347321D01*
X272471Y347116D01*
X272675Y346907D01*
X269525D01*
X269729Y347116D01*
X270073Y347523D01*
X270213Y347722D01*
X270331Y347918D01*
X270428Y348110D01*
X270503Y348298D01*
X270557Y348483D01*
X270589Y348665D01*
X270600Y348843D01*
X271600D01*
X271611Y348665D01*
D02*
G37*
G36*
X312111Y344365D02*
X312143Y344183D01*
X312197Y343998D01*
X312272Y343810D01*
X312369Y343618D01*
X312487Y343422D01*
X312627Y343223D01*
X312788Y343021D01*
X312971Y342816D01*
X313175Y342607D01*
X310025D01*
X310229Y342816D01*
X310573Y343223D01*
X310713Y343422D01*
X310831Y343618D01*
X310928Y343810D01*
X311003Y343998D01*
X311057Y344183D01*
X311089Y344365D01*
X311100Y344543D01*
X312100D01*
X312111Y344365D01*
D02*
G37*
G36*
X266611D02*
X266643Y344183D01*
X266697Y343998D01*
X266772Y343810D01*
X266869Y343618D01*
X266987Y343422D01*
X267127Y343223D01*
X267288Y343021D01*
X267471Y342816D01*
X267675Y342607D01*
X264525D01*
X264729Y342816D01*
X265073Y343223D01*
X265213Y343422D01*
X265331Y343618D01*
X265428Y343810D01*
X265503Y343998D01*
X265557Y344183D01*
X265589Y344365D01*
X265600Y344543D01*
X266600D01*
X266611Y344365D01*
D02*
G37*
G36*
X286577Y338750D02*
X286285Y338746D01*
X285754Y338701D01*
X285514Y338660D01*
X285292Y338605D01*
X285088Y338538D01*
X284902Y338457D01*
X284733Y338364D01*
X284582Y338259D01*
X284448Y338140D01*
X283741Y338847D01*
X283859Y338981D01*
X283965Y339132D01*
X284058Y339301D01*
X284138Y339488D01*
X284205Y339692D01*
X284260Y339914D01*
X284302Y340153D01*
X284331Y340410D01*
X284347Y340685D01*
X284350Y340977D01*
X286577Y338750D01*
D02*
G37*
G36*
X298111Y344365D02*
X298143Y344183D01*
X298197Y343998D01*
X298272Y343810D01*
X298369Y343618D01*
X298487Y343422D01*
X298627Y343223D01*
X298788Y343021D01*
X298971Y342816D01*
X299175Y342607D01*
X296025D01*
X296229Y342816D01*
X296573Y343223D01*
X296713Y343422D01*
X296831Y343618D01*
X296928Y343810D01*
X297003Y343998D01*
X297057Y344183D01*
X297089Y344365D01*
X297100Y344543D01*
X298100D01*
X298111Y344365D01*
D02*
G37*
G36*
X276611D02*
X276643Y344183D01*
X276697Y343998D01*
X276772Y343810D01*
X276869Y343618D01*
X276987Y343422D01*
X277127Y343223D01*
X277288Y343021D01*
X277471Y342816D01*
X277675Y342607D01*
X274525D01*
X274729Y342816D01*
X275073Y343223D01*
X275213Y343422D01*
X275331Y343618D01*
X275428Y343810D01*
X275503Y343998D01*
X275557Y344183D01*
X275589Y344365D01*
X275600Y344543D01*
X276600D01*
X276611Y344365D01*
D02*
G37*
G36*
X292111Y348665D02*
X292143Y348483D01*
X292197Y348298D01*
X292272Y348110D01*
X292369Y347918D01*
X292487Y347722D01*
X292627Y347523D01*
X292788Y347321D01*
X292971Y347116D01*
X293175Y346907D01*
X290025D01*
X290229Y347116D01*
X290573Y347523D01*
X290713Y347722D01*
X290831Y347918D01*
X290928Y348110D01*
X291003Y348298D01*
X291057Y348483D01*
X291089Y348665D01*
X291100Y348843D01*
X292100D01*
X292111Y348665D01*
D02*
G37*
G36*
X108666Y424370D02*
X109073Y424026D01*
X109272Y423887D01*
X109468Y423768D01*
X109660Y423672D01*
X109848Y423596D01*
X110033Y423543D01*
X110215Y423510D01*
X110393Y423500D01*
Y422500D01*
X110215Y422489D01*
X110033Y422457D01*
X109848Y422403D01*
X109660Y422328D01*
X109468Y422231D01*
X109272Y422113D01*
X109073Y421973D01*
X108871Y421812D01*
X108666Y421629D01*
X108457Y421425D01*
Y424575D01*
X108666Y424370D01*
D02*
G37*
G36*
X377656Y409783D02*
X377673Y409563D01*
X377702Y409355D01*
X377742Y409160D01*
X377794Y408978D01*
X377857Y408809D01*
X377932Y408652D01*
X378018Y408507D01*
X378116Y408376D01*
X378225Y408257D01*
X375075D01*
X375184Y408376D01*
X375282Y408507D01*
X375368Y408652D01*
X375443Y408809D01*
X375506Y408978D01*
X375558Y409160D01*
X375598Y409355D01*
X375627Y409563D01*
X375644Y409783D01*
X375650Y410016D01*
X377650D01*
X377656Y409783D01*
D02*
G37*
G36*
X234000Y423000D02*
X233000Y421500D01*
X233000Y421501D01*
X233000Y421500D01*
X232990Y421690D01*
X232960Y421860D01*
X232910Y422010D01*
X232840Y422140D01*
X232750Y422250D01*
X232640Y422340D01*
X232510Y422410D01*
X232360Y422460D01*
X232190Y422490D01*
X232000Y422500D01*
Y423500D01*
X232000Y423500D01*
Y423500D01*
X232190Y423510D01*
X232360Y423540D01*
X232510Y423590D01*
X232640Y423660D01*
X232750Y423750D01*
X232840Y423860D01*
X232910Y423990D01*
X232960Y424140D01*
X232990Y424310D01*
X233000Y424500D01*
X233000Y424499D01*
X233000Y424500D01*
X234000Y423000D01*
D02*
G37*
G36*
X450996Y427426D02*
X451164Y427283D01*
X451331Y427157D01*
X451497Y427047D01*
X451662Y426955D01*
X451827Y426880D01*
X451991Y426822D01*
X452154Y426781D01*
X452316Y426757D01*
X452477Y426750D01*
X450250Y424523D01*
X450243Y424684D01*
X450219Y424846D01*
X450178Y425009D01*
X450120Y425173D01*
X450045Y425338D01*
X449953Y425503D01*
X449843Y425669D01*
X449717Y425836D01*
X449574Y426004D01*
X449413Y426173D01*
X450827Y427587D01*
X450996Y427426D01*
D02*
G37*
G36*
X325471Y446684D02*
X325127Y446276D01*
X324987Y446077D01*
X324869Y445882D01*
X324772Y445690D01*
X324697Y445502D01*
X324643Y445316D01*
X324611Y445135D01*
X324600Y444956D01*
X323600D01*
X323589Y445135D01*
X323557Y445316D01*
X323503Y445502D01*
X323428Y445690D01*
X323331Y445882D01*
X323213Y446077D01*
X323073Y446276D01*
X322912Y446479D01*
X322729Y446684D01*
X322525Y446893D01*
X325675D01*
X325471Y446684D01*
D02*
G37*
G36*
X315011Y376865D02*
X315043Y376684D01*
X315097Y376498D01*
X315172Y376310D01*
X315269Y376118D01*
X315387Y375923D01*
X315527Y375724D01*
X315688Y375522D01*
X315871Y375316D01*
X316075Y375107D01*
X312925D01*
X313129Y375316D01*
X313473Y375724D01*
X313613Y375923D01*
X313731Y376118D01*
X313828Y376310D01*
X313903Y376498D01*
X313957Y376684D01*
X313989Y376865D01*
X314000Y377044D01*
X315000D01*
X315011Y376865D01*
D02*
G37*
G36*
X317111Y348665D02*
X317143Y348483D01*
X317197Y348298D01*
X317272Y348110D01*
X317369Y347918D01*
X317487Y347722D01*
X317627Y347523D01*
X317788Y347321D01*
X317971Y347116D01*
X318175Y346907D01*
X315025D01*
X315229Y347116D01*
X315573Y347523D01*
X315713Y347722D01*
X315831Y347918D01*
X315928Y348110D01*
X316003Y348298D01*
X316057Y348483D01*
X316089Y348665D01*
X316100Y348843D01*
X317100D01*
X317111Y348665D01*
D02*
G37*
G36*
X316611Y403565D02*
X316643Y403384D01*
X316697Y403199D01*
X316772Y403010D01*
X316869Y402818D01*
X316987Y402622D01*
X317127Y402424D01*
X317288Y402221D01*
X317471Y402016D01*
X317675Y401807D01*
X314525D01*
X314729Y402016D01*
X315073Y402424D01*
X315213Y402622D01*
X315331Y402818D01*
X315428Y403010D01*
X315503Y403199D01*
X315557Y403384D01*
X315589Y403565D01*
X315600Y403744D01*
X316600D01*
X316611Y403565D01*
D02*
G37*
G36*
X361611Y401365D02*
X361643Y401184D01*
X361697Y400998D01*
X361772Y400810D01*
X361869Y400618D01*
X361987Y400423D01*
X362127Y400224D01*
X362288Y400022D01*
X362471Y399816D01*
X362675Y399607D01*
X359525D01*
X359729Y399816D01*
X360073Y400224D01*
X360213Y400423D01*
X360331Y400618D01*
X360428Y400810D01*
X360503Y400998D01*
X360557Y401184D01*
X360589Y401365D01*
X360600Y401544D01*
X361600D01*
X361611Y401365D01*
D02*
G37*
G36*
X238011Y221865D02*
X238043Y221684D01*
X238097Y221499D01*
X238172Y221310D01*
X238269Y221118D01*
X238387Y220923D01*
X238527Y220724D01*
X238688Y220522D01*
X238871Y220316D01*
X239075Y220107D01*
X235925D01*
X236129Y220316D01*
X236473Y220724D01*
X236613Y220923D01*
X236731Y221118D01*
X236828Y221310D01*
X236903Y221499D01*
X236957Y221684D01*
X236989Y221865D01*
X237000Y222044D01*
X238000D01*
X238011Y221865D01*
D02*
G37*
G36*
X373596Y526754D02*
X373367Y525600D01*
X373413Y525367D01*
X373352Y525284D01*
X373336Y525219D01*
X373299Y525164D01*
X373195Y524642D01*
X373069Y524124D01*
X373079Y524058D01*
X373066Y523993D01*
X373170Y523471D01*
X373252Y522945D01*
X373286Y522888D01*
X373299Y522823D01*
X373595Y522380D01*
X373622Y522336D01*
Y505840D01*
X373616Y505793D01*
X373591Y505661D01*
X373558Y505542D01*
X373518Y505432D01*
X373469Y505326D01*
X373408Y505219D01*
X373332Y505107D01*
X373303Y505070D01*
X358716Y490484D01*
X357832Y489161D01*
X357781Y488902D01*
X357522Y487600D01*
X357522Y487600D01*
Y479246D01*
X357422Y479236D01*
X357297Y479866D01*
X356523Y481023D01*
X346869Y490678D01*
Y491046D01*
X346937Y491126D01*
X347063Y491255D01*
X347379Y491741D01*
X347701Y492223D01*
X347704Y492240D01*
X347714Y492255D01*
X347821Y492826D01*
X347934Y493393D01*
X347930Y493411D01*
X347934Y493428D01*
X347814Y493997D01*
X347701Y494564D01*
X347691Y494579D01*
X347687Y494596D01*
X347583Y494748D01*
X347633Y495000D01*
X347303Y496658D01*
X346364Y498064D01*
X344958Y499003D01*
X343300Y499333D01*
X343146Y499303D01*
X343069Y499366D01*
Y506522D01*
X353478Y516931D01*
X354846D01*
X354926Y516864D01*
X355055Y516737D01*
X355541Y516421D01*
X356023Y516099D01*
X356040Y516096D01*
X356055Y516086D01*
X356626Y515979D01*
X357193Y515866D01*
X357211Y515870D01*
X357228Y515867D01*
X357797Y515986D01*
X358364Y516099D01*
X358379Y516109D01*
X358396Y516113D01*
X358548Y516217D01*
X358800Y516167D01*
X360458Y516497D01*
X361864Y517436D01*
X362803Y518842D01*
X363133Y520500D01*
X362803Y522158D01*
X361864Y523564D01*
X360458Y524503D01*
X358800Y524833D01*
X358548Y524783D01*
X358396Y524887D01*
X358379Y524891D01*
X358364Y524901D01*
X357797Y525014D01*
X357228Y525134D01*
X357211Y525130D01*
X357193Y525134D01*
X356626Y525021D01*
X356055Y524914D01*
X356040Y524905D01*
X356023Y524901D01*
X355541Y524579D01*
X355055Y524263D01*
X354898Y524109D01*
X354853Y524069D01*
X352000D01*
X350634Y523797D01*
X349477Y523023D01*
X336977Y510523D01*
X336203Y509366D01*
X335931Y508000D01*
Y494220D01*
X334842Y494003D01*
X333436Y493064D01*
X332497Y491658D01*
X332167Y490000D01*
X332497Y488342D01*
X333436Y486936D01*
X334842Y485997D01*
X336500Y485667D01*
X336882Y485743D01*
X336953Y485384D01*
X337727Y484227D01*
X340691Y481262D01*
X340662Y481167D01*
X339842Y481003D01*
X338436Y480064D01*
X337497Y478658D01*
X337167Y477000D01*
X337217Y476748D01*
X337113Y476596D01*
X337109Y476579D01*
X337099Y476564D01*
X336986Y475997D01*
X336866Y475428D01*
X336870Y475411D01*
X336866Y475393D01*
X336978Y474831D01*
X336984Y474730D01*
X335842Y474503D01*
X334436Y473564D01*
X334293Y473351D01*
X334112Y473317D01*
X334097Y473307D01*
X334080Y473303D01*
X333599Y472982D01*
X333112Y472665D01*
X333102Y472650D01*
X333087Y472640D01*
X332766Y472159D01*
X332438Y471681D01*
X332434Y471663D01*
X332424Y471648D01*
X332311Y471079D01*
X332192Y470513D01*
X332189Y470293D01*
X332185Y470232D01*
X325977Y464023D01*
X325203Y462866D01*
X324931Y461500D01*
Y452747D01*
X324854Y452683D01*
X324100Y452833D01*
X323646Y452743D01*
X323569Y452806D01*
Y504022D01*
X346378Y526831D01*
X373533D01*
X373596Y526754D01*
D02*
G37*
G36*
X248011Y231865D02*
X248043Y231684D01*
X248097Y231499D01*
X248172Y231310D01*
X248269Y231118D01*
X248387Y230923D01*
X248527Y230724D01*
X248688Y230522D01*
X248871Y230316D01*
X249075Y230107D01*
X245925D01*
X246129Y230316D01*
X246473Y230724D01*
X246613Y230923D01*
X246731Y231118D01*
X246828Y231310D01*
X246903Y231499D01*
X246957Y231684D01*
X246989Y231865D01*
X247000Y232044D01*
X248000D01*
X248011Y231865D01*
D02*
G37*
G36*
X234011Y226865D02*
X234043Y226684D01*
X234097Y226499D01*
X234172Y226310D01*
X234269Y226118D01*
X234387Y225923D01*
X234527Y225724D01*
X234688Y225522D01*
X234871Y225316D01*
X235075Y225107D01*
X231925D01*
X232129Y225316D01*
X232473Y225724D01*
X232613Y225923D01*
X232731Y226118D01*
X232828Y226310D01*
X232903Y226499D01*
X232957Y226684D01*
X232989Y226865D01*
X233000Y227044D01*
X234000D01*
X234011Y226865D01*
D02*
G37*
G36*
X357193Y518925D02*
X356984Y519129D01*
X356576Y519473D01*
X356377Y519613D01*
X356182Y519731D01*
X355990Y519828D01*
X355802Y519903D01*
X355616Y519957D01*
X355435Y519989D01*
X355256Y520000D01*
Y521000D01*
X355435Y521011D01*
X355616Y521043D01*
X355802Y521097D01*
X355990Y521172D01*
X356182Y521269D01*
X356377Y521387D01*
X356576Y521527D01*
X356779Y521688D01*
X356984Y521871D01*
X357193Y522075D01*
Y518925D01*
D02*
G37*
G36*
X104866Y207521D02*
X105274Y207177D01*
X105472Y207037D01*
X105668Y206919D01*
X105860Y206822D01*
X106048Y206747D01*
X106234Y206693D01*
X106415Y206661D01*
X106594Y206650D01*
Y205650D01*
X106415Y205639D01*
X106234Y205607D01*
X106048Y205553D01*
X105860Y205478D01*
X105668Y205381D01*
X105472Y205263D01*
X105274Y205123D01*
X105071Y204962D01*
X104866Y204779D01*
X104657Y204575D01*
Y207725D01*
X104866Y207521D01*
D02*
G37*
G36*
X92603Y205835D02*
X92648Y205304D01*
X92690Y205064D01*
X92745Y204842D01*
X92812Y204638D01*
X92892Y204452D01*
X92985Y204283D01*
X93091Y204132D01*
X93209Y203998D01*
X92502Y203291D01*
X92369Y203409D01*
X92217Y203515D01*
X92048Y203608D01*
X91862Y203688D01*
X91658Y203755D01*
X91436Y203810D01*
X91196Y203852D01*
X90939Y203881D01*
X90665Y203897D01*
X90372Y203900D01*
X92600Y206127D01*
X92603Y205835D01*
D02*
G37*
G36*
X243511Y216865D02*
X243543Y216684D01*
X243597Y216499D01*
X243672Y216310D01*
X243769Y216118D01*
X243887Y215923D01*
X244027Y215724D01*
X244188Y215522D01*
X244371Y215316D01*
X244575Y215107D01*
X241425D01*
X241629Y215316D01*
X241973Y215724D01*
X242113Y215923D01*
X242231Y216118D01*
X242328Y216310D01*
X242403Y216499D01*
X242457Y216684D01*
X242489Y216865D01*
X242500Y217044D01*
X243500D01*
X243511Y216865D01*
D02*
G37*
G36*
X379166Y523874D02*
X379068Y523742D01*
X378982Y523598D01*
X378907Y523441D01*
X378844Y523272D01*
X378792Y523089D01*
X378752Y522895D01*
X378723Y522687D01*
X378706Y522467D01*
X378700Y522234D01*
X376700D01*
X376694Y522467D01*
X376677Y522687D01*
X376648Y522895D01*
X376608Y523089D01*
X376556Y523272D01*
X376493Y523441D01*
X376418Y523598D01*
X376332Y523742D01*
X376234Y523874D01*
X376125Y523993D01*
X379275D01*
X379166Y523874D01*
D02*
G37*
G36*
X205870Y236184D02*
X205526Y235776D01*
X205387Y235578D01*
X205268Y235382D01*
X205172Y235190D01*
X205096Y235002D01*
X205043Y234816D01*
X205010Y234635D01*
X205000Y234456D01*
X204000D01*
X203989Y234635D01*
X203957Y234816D01*
X203903Y235002D01*
X203828Y235190D01*
X203731Y235382D01*
X203613Y235578D01*
X203473Y235776D01*
X203312Y235979D01*
X203129Y236184D01*
X202925Y236393D01*
X206075D01*
X205870Y236184D01*
D02*
G37*
G36*
X342871Y475184D02*
X342527Y474776D01*
X342387Y474577D01*
X342269Y474382D01*
X342172Y474190D01*
X342097Y474002D01*
X342043Y473816D01*
X342011Y473635D01*
X342000Y473456D01*
X341000D01*
X340989Y473635D01*
X340957Y473816D01*
X340903Y474002D01*
X340828Y474190D01*
X340731Y474382D01*
X340613Y474577D01*
X340473Y474776D01*
X340312Y474978D01*
X340129Y475184D01*
X339925Y475393D01*
X343075D01*
X342871Y475184D01*
D02*
G37*
G36*
X344671Y493184D02*
X344327Y492776D01*
X344187Y492578D01*
X344069Y492382D01*
X343972Y492190D01*
X343897Y492001D01*
X343843Y491816D01*
X343811Y491635D01*
X343800Y491456D01*
X342800D01*
X342789Y491635D01*
X342757Y491816D01*
X342703Y492001D01*
X342628Y492190D01*
X342531Y492382D01*
X342413Y492578D01*
X342273Y492776D01*
X342112Y492979D01*
X341929Y493184D01*
X341725Y493393D01*
X344875D01*
X344671Y493184D01*
D02*
G37*
G36*
X337477Y468250D02*
X337185Y468247D01*
X336654Y468202D01*
X336414Y468160D01*
X336193Y468105D01*
X335988Y468038D01*
X335802Y467958D01*
X335633Y467865D01*
X335481Y467759D01*
X335348Y467641D01*
X334641Y468348D01*
X334759Y468481D01*
X334865Y468633D01*
X334958Y468802D01*
X335038Y468988D01*
X335105Y469193D01*
X335160Y469414D01*
X335202Y469654D01*
X335231Y469911D01*
X335247Y470185D01*
X335250Y470477D01*
X337477Y468250D01*
D02*
G37*
G36*
X35564Y310721D02*
X35052Y310177D01*
X34595Y309625D01*
X34192Y309063D01*
X33844Y308492D01*
X33550Y307912D01*
X33311Y307323D01*
X33126Y306724D01*
X32996Y306117D01*
X32921Y305501D01*
X32900Y304875D01*
X25475Y312300D01*
X26101Y312321D01*
X26717Y312396D01*
X27324Y312526D01*
X27923Y312711D01*
X28512Y312950D01*
X29092Y313244D01*
X29663Y313592D01*
X30225Y313995D01*
X30777Y314452D01*
X31321Y314964D01*
X35564Y310721D01*
D02*
G37*
G36*
X255977Y492750D02*
X255685Y492747D01*
X255154Y492702D01*
X254914Y492660D01*
X254692Y492605D01*
X254488Y492538D01*
X254302Y492458D01*
X254133Y492365D01*
X253981Y492259D01*
X253848Y492141D01*
X253141Y492848D01*
X253259Y492981D01*
X253365Y493133D01*
X253458Y493302D01*
X253538Y493488D01*
X253605Y493693D01*
X253660Y493914D01*
X253702Y494154D01*
X253731Y494411D01*
X253747Y494685D01*
X253750Y494977D01*
X255977Y492750D01*
D02*
G37*
G36*
X454093Y502125D02*
X453974Y502234D01*
X453843Y502332D01*
X453698Y502418D01*
X453541Y502493D01*
X453372Y502556D01*
X453190Y502608D01*
X452995Y502648D01*
X452787Y502677D01*
X452567Y502694D01*
X452335Y502700D01*
Y504700D01*
X452567Y504706D01*
X452787Y504723D01*
X452995Y504752D01*
X453190Y504792D01*
X453372Y504844D01*
X453541Y504907D01*
X453698Y504982D01*
X453843Y505068D01*
X453974Y505166D01*
X454093Y505275D01*
Y502125D01*
D02*
G37*
G36*
X202893Y242425D02*
X202684Y242629D01*
X202276Y242973D01*
X202077Y243113D01*
X201882Y243231D01*
X201690Y243328D01*
X201501Y243403D01*
X201316Y243457D01*
X201134Y243489D01*
X200956Y243500D01*
Y244500D01*
X201134Y244511D01*
X201316Y244543D01*
X201501Y244597D01*
X201690Y244672D01*
X201882Y244769D01*
X202077Y244887D01*
X202276Y245027D01*
X202478Y245188D01*
X202684Y245371D01*
X202893Y245575D01*
Y242425D01*
D02*
G37*
G36*
X252477Y500250D02*
X252185Y500247D01*
X251654Y500202D01*
X251414Y500160D01*
X251192Y500105D01*
X250988Y500038D01*
X250802Y499958D01*
X250633Y499865D01*
X250481Y499759D01*
X250348Y499641D01*
X249641Y500348D01*
X249759Y500481D01*
X249865Y500633D01*
X249958Y500802D01*
X250038Y500988D01*
X250105Y501192D01*
X250160Y501414D01*
X250202Y501654D01*
X250231Y501911D01*
X250247Y502185D01*
X250250Y502477D01*
X252477Y500250D01*
D02*
G37*
G36*
X378720Y506320D02*
X378780Y505980D01*
X378880Y505680D01*
X379020Y505420D01*
X379200Y505200D01*
X379420Y505020D01*
X379680Y504880D01*
X379980Y504780D01*
X380320Y504720D01*
X380700Y504700D01*
X380114Y502700D01*
X379720Y502686D01*
X379338Y502643D01*
X378967Y502573D01*
X378608Y502474D01*
X378261Y502346D01*
X377925Y502191D01*
X377601Y502007D01*
X377289Y501795D01*
X376989Y501554D01*
X376700Y501286D01*
X375286Y502700D01*
X375555Y502989D01*
X375795Y503289D01*
X376007Y503601D01*
X376191Y503925D01*
X376347Y504261D01*
X376474Y504608D01*
X376573Y504967D01*
X376643Y505338D01*
X376686Y505720D01*
X376700Y506114D01*
X378700Y506700D01*
X378720Y506320D01*
D02*
G37*
D10*
X483400Y75800D02*
G03*
X483400Y75800I-10000J0D01*
G01*
X133400Y25800D02*
G03*
X133400Y25800I-10000J0D01*
G01*
X30000Y665800D02*
G03*
X30000Y665800I-10000J0D01*
G01*
D38*
X473400Y75800D02*
D03*
X123400Y25800D02*
D03*
X20000Y665800D02*
D03*
D51*
X265000Y334500D02*
X280100D01*
X260400Y339100D02*
X265000Y334500D01*
X260400Y339100D02*
Y507600D01*
X196500Y244000D02*
X204500D01*
X158650Y206150D02*
X196500Y244000D01*
X103050Y206150D02*
X158650D01*
X106850Y423000D02*
X233500D01*
X266100Y341000D02*
Y391400D01*
X276100Y341000D02*
Y563600D01*
X280100Y334500D02*
X286600Y341000D01*
X290000Y355500D02*
Y524500D01*
X281100Y550400D02*
X297900Y567200D01*
X271100Y345300D02*
Y391600D01*
X281100Y345300D02*
Y550400D01*
X314500Y373500D02*
Y379000D01*
X311500Y382000D02*
X314500Y379000D01*
X311500Y382000D02*
Y509000D01*
X291600Y345300D02*
Y353900D01*
X290000Y355500D02*
X291600Y353900D01*
X297600Y341000D02*
Y353900D01*
X294000Y357500D02*
X297600Y353900D01*
X294000Y357500D02*
Y520400D01*
X302600Y344900D02*
Y355400D01*
X298500Y359500D02*
X302600Y355400D01*
X298500Y359500D02*
Y515700D01*
X308600Y372900D02*
Y510600D01*
X305600Y368900D02*
Y511843D01*
X302600Y362900D02*
Y513085D01*
Y362900D02*
X311600Y353900D01*
Y341000D02*
Y353900D01*
X305600Y368900D02*
X316600Y357900D01*
Y345300D02*
Y357900D01*
X308600Y372900D02*
X321600Y359900D01*
Y341000D02*
Y359900D01*
X339500Y337000D02*
Y426500D01*
X258000Y255500D02*
X339500Y337000D01*
X258000Y216500D02*
Y255500D01*
X335000Y338000D02*
Y388500D01*
X253000Y256000D02*
X335000Y338000D01*
X253000Y217500D02*
Y256000D01*
X243000Y213500D02*
Y256500D01*
X247500Y228500D02*
Y256000D01*
X349500Y436500D02*
Y477500D01*
X339500Y426500D02*
X349500Y436500D01*
X245000Y203500D02*
X258000Y216500D01*
X237500Y203500D02*
X245000D01*
X199000Y198500D02*
X210500D01*
X220500Y208500D01*
X244000D01*
X253000Y217500D01*
X332500Y391000D02*
X335000Y388500D01*
X328500Y389500D02*
X330500Y387500D01*
Y339000D02*
Y387500D01*
X247500Y256000D02*
X330500Y339000D01*
X243000Y256500D02*
X326250Y339750D01*
Y386250D01*
X324100Y388400D02*
X326250Y386250D01*
X298500Y515700D02*
X335900Y553100D01*
X294000Y520400D02*
X311900Y538300D01*
X332500Y391000D02*
Y458000D01*
X421248Y593748D02*
X438601D01*
X369000Y541500D02*
X421248Y593748D01*
X344000Y541500D02*
X369000D01*
X311500Y509000D02*
X344000Y541500D01*
X330000Y603600D02*
X335900Y597700D01*
Y553100D02*
Y597700D01*
X308900Y603600D02*
X330000D01*
X297900Y592600D02*
X308900Y603600D01*
X311900Y538300D02*
Y576400D01*
X283700Y581400D02*
X306900D01*
X311900Y576400D01*
X272500Y592600D02*
X283700Y581400D01*
X307900Y542400D02*
Y574300D01*
X261300Y578400D02*
X303800D01*
X307900Y574300D01*
X247100Y592600D02*
X261300Y578400D01*
X290000Y524500D02*
X307900Y542400D01*
X210500Y581400D02*
X221700Y592600D01*
X210500Y557500D02*
Y581400D01*
X395600Y580900D02*
Y606800D01*
X366000Y551300D02*
X395600Y580900D01*
X398600Y579900D02*
Y609300D01*
X367000Y548300D02*
X398600Y579900D01*
X401600Y578900D02*
Y606800D01*
X368000Y545300D02*
X401600Y578900D01*
X233500Y423000D02*
Y483500D01*
Y223500D02*
Y423000D01*
X233500Y423000D02*
X233500Y423000D01*
Y483500D02*
X252500Y502500D01*
X324100Y388400D02*
Y448500D01*
X343300Y489200D02*
X354000Y478500D01*
Y418000D02*
Y478500D01*
Y418000D02*
X361100Y410900D01*
X352000Y520500D02*
X358800D01*
X339500Y508000D02*
X352000Y520500D01*
X339500Y493053D02*
Y508000D01*
Y493053D02*
X340250Y492303D01*
Y486750D02*
Y492303D01*
Y486750D02*
X349500Y477500D01*
X328500Y461500D02*
X337500Y470500D01*
X328500Y389500D02*
Y461500D01*
X341500Y467000D02*
Y477000D01*
X332500Y458000D02*
X341500Y467000D01*
X253500Y68000D02*
X291372D01*
X351000Y127628D01*
Y152500D01*
X254000Y50300D02*
X280300D01*
X356000Y126000D01*
Y148200D01*
X272500Y393000D02*
Y541800D01*
X271100Y391600D02*
X272500Y393000D01*
X221700Y567200D02*
X264500Y524400D01*
Y393000D02*
Y524400D01*
Y393000D02*
X266100Y391400D01*
X247100Y567200D02*
X272500Y541800D01*
X203200Y50300D02*
Y100200D01*
X246100Y143100D01*
Y152500D01*
X215899Y37599D02*
Y104899D01*
X251100Y140100D01*
Y148200D01*
X255650Y152950D02*
X256100Y153400D01*
X239500Y35800D02*
Y121000D01*
X256100Y137600D01*
Y152500D01*
X204500Y233699D02*
Y238000D01*
X171301Y200500D02*
X204500Y233699D01*
X96000Y200500D02*
X171301D01*
X90350Y206150D02*
X96000Y200500D01*
X343300Y489200D02*
Y495000D01*
X361100Y398000D02*
Y410900D01*
X237500Y476500D02*
X256000Y495000D01*
X237500Y218500D02*
Y476500D01*
X344900Y530400D02*
X411700D01*
X320000Y505500D02*
X344900Y530400D01*
X320000Y413000D02*
Y505500D01*
X210500Y557500D02*
X260400Y507600D01*
X316100Y409100D02*
X320000Y413000D01*
X316100Y400200D02*
Y409100D01*
X243300Y22000D02*
Y57800D01*
X253500Y68000D01*
X411700Y530400D02*
X425500Y544200D01*
Y547700D01*
X343300Y545300D02*
X368000D01*
X342057Y548300D02*
X367000D01*
X401600Y606800D02*
X404100Y609300D01*
X393100D02*
X395600Y606800D01*
X340815Y551300D02*
X366000D01*
X302600Y513085D02*
X340815Y551300D01*
X305600Y511843D02*
X342057Y548300D01*
X308600Y510600D02*
X343300Y545300D01*
X272500Y567200D02*
X276100Y563600D01*
X177800Y24900D02*
X191100Y11600D01*
X203200Y24900D02*
X215899Y37599D01*
X228600Y24900D02*
X239500Y35800D01*
X191100Y11600D02*
X232900D01*
X243300Y22000D01*
X533400Y675800D02*
G03*
X523400Y685800I-10000J0D01*
G01*
X10000D02*
G03*
X0Y675800I0J-10000D01*
G01*
Y35400D02*
G03*
X10000Y25400I10000J0D01*
G01*
X518200D02*
X533400Y40600D01*
X25400Y25400D02*
X50800Y0D01*
X378500D01*
X403900Y25400D01*
X518200D01*
X10000D02*
X25400D01*
X533400Y40600D02*
Y675800D01*
X10000Y685800D02*
X523400D01*
X0Y35400D02*
Y675800D01*
D52*
X448000Y429000D02*
X452500Y424500D01*
X376650Y406650D02*
Y429150D01*
X361600Y444200D02*
X376650Y429150D01*
X361600Y444200D02*
Y487600D01*
X376650Y429000D02*
X448000D01*
X377700Y503700D02*
X455200D01*
X361600Y487600D02*
X377700Y503700D01*
Y525600D01*
D56*
X76200Y457200D02*
D03*
X25400Y177800D02*
D03*
X508000Y50800D02*
D03*
X132300Y457200D02*
D03*
X508500Y269150D02*
D03*
X25400Y406400D02*
D03*
D57*
X101600Y457200D02*
D03*
X76200Y482600D02*
D03*
X101600D02*
D03*
X76200Y508000D02*
D03*
X101600D02*
D03*
X76200Y533400D02*
D03*
X101600D02*
D03*
X195800Y482600D02*
D03*
X247100Y567200D02*
D03*
X272500D02*
D03*
X297900D02*
D03*
X323300D02*
D03*
X348700D02*
D03*
X221700Y592600D02*
D03*
X247100D02*
D03*
X272500D02*
D03*
X297900D02*
D03*
X323300D02*
D03*
X348700D02*
D03*
X25400Y76200D02*
D03*
Y101600D02*
D03*
Y127000D02*
D03*
Y152400D02*
D03*
Y50800D02*
D03*
X508000Y228600D02*
D03*
Y203200D02*
D03*
Y152400D02*
D03*
Y127000D02*
D03*
Y101600D02*
D03*
Y76200D02*
D03*
Y177800D02*
D03*
X254000Y50300D02*
D03*
X228600Y24900D02*
D03*
Y50300D02*
D03*
X203200Y24900D02*
D03*
Y50300D02*
D03*
X177800Y24900D02*
D03*
Y50300D02*
D03*
X157700Y457200D02*
D03*
X132300Y482600D02*
D03*
X157700D02*
D03*
X132300Y508000D02*
D03*
X157700D02*
D03*
X132300Y533400D02*
D03*
X157700D02*
D03*
X508500Y396150D02*
D03*
Y294550D02*
D03*
Y319950D02*
D03*
Y345350D02*
D03*
Y370750D02*
D03*
Y421550D02*
D03*
Y446950D02*
D03*
Y497750D02*
D03*
Y472350D02*
D03*
X25400Y228600D02*
D03*
Y254000D02*
D03*
Y304800D02*
D03*
Y330200D02*
D03*
Y355600D02*
D03*
Y381000D02*
D03*
Y279400D02*
D03*
D58*
X195800Y508000D02*
D03*
D59*
X221700Y567200D02*
D03*
X254000Y24900D02*
D03*
D60*
X266100Y341000D02*
D03*
X276100D02*
D03*
X285000Y426500D02*
D03*
X286000Y414200D02*
D03*
Y398800D02*
D03*
X271100Y345300D02*
D03*
X281100D02*
D03*
X302600D02*
D03*
X452500Y405358D02*
D03*
X438601Y593748D02*
D03*
X297600Y341000D02*
D03*
X291600Y345300D02*
D03*
X88500Y264500D02*
D03*
X63950Y267250D02*
D03*
X137500Y337000D02*
D03*
X133770Y663270D02*
D03*
X106850Y423000D02*
D03*
Y414000D02*
D03*
X82500Y414000D02*
D03*
X79850Y432000D02*
D03*
X60150D02*
D03*
X391100Y398000D02*
D03*
X210100Y323500D02*
D03*
X237500Y203500D02*
D03*
X199000Y198500D02*
D03*
X243000Y213500D02*
D03*
X324100Y448500D02*
D03*
X519700Y585500D02*
D03*
Y590500D02*
D03*
X103050Y206150D02*
D03*
X90350D02*
D03*
X204500Y244000D02*
D03*
Y238000D02*
D03*
X405900Y653600D02*
D03*
X361100Y398000D02*
D03*
X337500Y470500D02*
D03*
X341500Y477000D02*
D03*
X336300Y484150D02*
D03*
X336500Y490000D02*
D03*
X343300Y495000D02*
D03*
X358800Y520500D02*
D03*
X314500Y373500D02*
D03*
X440000Y603900D02*
D03*
X256000Y495000D02*
D03*
X237500Y218500D02*
D03*
X252500Y502500D02*
D03*
X233500Y223500D02*
D03*
X247500Y228500D02*
D03*
X199000Y236500D02*
D03*
X183850Y262500D02*
D03*
X210350Y462000D02*
D03*
X211100Y451000D02*
D03*
X139276Y256776D02*
D03*
X64950Y228400D02*
D03*
X77650D02*
D03*
X103050Y156600D02*
D03*
X90350D02*
D03*
X184550Y165000D02*
D03*
X146450Y237000D02*
D03*
X249500Y442500D02*
D03*
X268400Y415200D02*
D03*
Y399800D02*
D03*
X462700Y541100D02*
D03*
X453850Y269350D02*
D03*
Y263650D02*
D03*
Y307650D02*
D03*
Y313350D02*
D03*
X203650Y274350D02*
D03*
Y268650D02*
D03*
X203525Y187524D02*
D03*
Y193224D02*
D03*
X321375Y147674D02*
D03*
Y163074D02*
D03*
X371925Y153024D02*
D03*
X376774Y163574D02*
D03*
X215800Y396350D02*
D03*
X203650Y304350D02*
D03*
Y298650D02*
D03*
X336874Y159626D02*
D03*
X344299Y136750D02*
D03*
X431650Y158500D02*
D03*
X449000Y192650D02*
D03*
X453500Y202850D02*
D03*
X56900Y613920D02*
D03*
X155670Y563220D02*
D03*
X138000Y352500D02*
D03*
Y357500D02*
D03*
X140000Y366500D02*
D03*
Y372000D02*
D03*
Y390500D02*
D03*
Y384500D02*
D03*
X137500Y342500D02*
D03*
X130000Y249000D02*
D03*
Y254500D02*
D03*
X132500Y296500D02*
D03*
Y302500D02*
D03*
Y284000D02*
D03*
Y278500D02*
D03*
X130000Y269500D02*
D03*
Y264500D02*
D03*
X83000Y260500D02*
D03*
X100500Y264500D02*
D03*
X95000Y260500D02*
D03*
X96000Y352500D02*
D03*
X102500Y348500D02*
D03*
X108000Y352500D02*
D03*
X90500Y348500D02*
D03*
X484500Y435000D02*
D03*
X398600Y609300D02*
D03*
X321600Y341000D02*
D03*
X311600D02*
D03*
X316600Y345300D02*
D03*
X404100Y609300D02*
D03*
X393100D02*
D03*
X57100Y648080D02*
D03*
X155770Y663270D02*
D03*
X396100Y375700D02*
D03*
X306100Y159700D02*
D03*
X353600Y398500D02*
D03*
X286600Y341000D02*
D03*
X391100Y164000D02*
D03*
X445600Y348500D02*
D03*
X210100Y258500D02*
D03*
Y208500D02*
D03*
X316100Y400200D02*
D03*
X425500Y547700D02*
D03*
X455700Y470000D02*
D03*
X376650Y406650D02*
D03*
X365300Y412000D02*
D03*
X455700Y503700D02*
D03*
X455700Y509900D02*
D03*
X455600Y464000D02*
D03*
X434300Y434000D02*
D03*
X447300Y439000D02*
D03*
X452500Y424500D02*
D03*
X503600Y590200D02*
D03*
X415950Y485800D02*
D03*
X396300Y466500D02*
D03*
X416130Y446900D02*
D03*
X376870Y485800D02*
D03*
X377150Y447650D02*
D03*
X345300Y464000D02*
D03*
X363800Y517500D02*
D03*
X433800D02*
D03*
X428800Y415500D02*
D03*
X389900Y525600D02*
D03*
X372200Y520700D02*
D03*
X383800Y525600D02*
D03*
X377700D02*
D03*
X385500Y540800D02*
D03*
X373000Y536300D02*
D03*
X407700Y535500D02*
D03*
X415700Y525900D02*
D03*
X437000Y559500D02*
D03*
X429800Y552800D02*
D03*
X407600Y546900D02*
D03*
X416700Y560200D02*
D03*
X441900Y530600D02*
D03*
X474800Y457500D02*
D03*
X465400Y508200D02*
D03*
X471200Y508300D02*
D03*
X337300Y434000D02*
D03*
Y440200D02*
D03*
X400000Y412200D02*
D03*
Y406300D02*
D03*
X420000Y661000D02*
D03*
X420300Y675300D02*
D03*
X524200Y661000D02*
D03*
X524500Y675300D02*
D03*
X459400Y631400D02*
D03*
X464350Y626450D02*
D03*
X198520Y668800D02*
D03*
X74920Y564100D02*
D03*
X356000Y148200D02*
D03*
X351000Y152500D02*
D03*
X251100Y148200D02*
D03*
X246100Y152500D02*
D03*
X256100D02*
D03*
D63*
X168000Y433000D02*
X177000Y442000D01*
X91000Y433000D02*
X168000D01*
X44000Y386000D02*
X91000Y433000D01*
X177000Y442000D02*
Y590000D01*
X44000Y323400D02*
Y386000D01*
X177000Y590000D02*
X209500Y622500D01*
X440000D01*
X458000Y604500D01*
X25400Y304800D02*
X44000Y323400D01*
X519700Y585500D02*
Y590500D01*
X505700Y604500D02*
X519700Y590500D01*
X458000Y604500D02*
X505700D01*
M02*
