%FSLAX44Y44*%
%MOMM*%
G71*
G01*
G75*
G04 Layer_Color=32896*
%ADD10R,1.2000X0.8000*%
G04:AMPARAMS|DCode=11|XSize=0.6mm|YSize=0.5mm|CornerRadius=0.05mm|HoleSize=0mm|Usage=FLASHONLY|Rotation=180.000|XOffset=0mm|YOffset=0mm|HoleType=Round|Shape=RoundedRectangle|*
%AMROUNDEDRECTD11*
21,1,0.6000,0.4000,0,0,180.0*
21,1,0.5000,0.5000,0,0,180.0*
1,1,0.1000,-0.2500,0.2000*
1,1,0.1000,0.2500,0.2000*
1,1,0.1000,0.2500,-0.2000*
1,1,0.1000,-0.2500,-0.2000*
%
%ADD11ROUNDEDRECTD11*%
%ADD12C,0.1000*%
%ADD13C,0.0800*%
%ADD14C,0.2000*%
%ADD15C,0.0750*%
%ADD16R,1.5000X1.5000*%
%ADD17C,1.5000*%
%ADD18C,0.4500*%
%ADD19C,0.3500*%
%ADD20C,0.2000*%
%ADD21C,0.0500*%
%ADD22C,0.6000*%
%ADD23C,0.2500*%
%ADD24C,0.2000*%
%ADD25C,0.1000*%
D12*
X72250Y28240D02*
G03*
X72250Y28240I-500J0D01*
G01*
X96983Y143010D02*
X99316D01*
X98149D01*
Y137179D01*
X99316Y136012D01*
X100482D01*
X101648Y137179D01*
X89985Y143010D02*
X92318Y141844D01*
X94650Y139511D01*
Y137179D01*
X93484Y136012D01*
X91152D01*
X89985Y137179D01*
Y138345D01*
X91152Y139511D01*
X94650D01*
X72438Y59190D02*
Y53359D01*
X71272Y52192D01*
X68939D01*
X67773Y53359D01*
Y59190D01*
X65441Y52192D02*
X63108D01*
X64274D01*
Y59190D01*
X65441Y58024D01*
X46183Y60056D02*
X47349Y61222D01*
X49682D01*
X50848Y60056D01*
Y55391D01*
X49682Y54224D01*
X47349D01*
X46183Y55391D01*
X39185Y54224D02*
X43850D01*
X39185Y58889D01*
Y60056D01*
X40352Y61222D01*
X42684D01*
X43850Y60056D01*
X88440Y46096D02*
Y53094D01*
X84941D01*
X83775Y51928D01*
Y49595D01*
X84941Y48429D01*
X88440D01*
X86108D02*
X83775Y46096D01*
X81442D02*
X79110D01*
X80276D01*
Y53094D01*
X81442Y51928D01*
X12000Y17660D02*
Y122950D01*
X114000Y17660D02*
Y122950D01*
X12000Y17660D02*
X114000D01*
X12000Y122950D02*
X114000D01*
D14*
X38100Y127000D02*
X48100D01*
X38100Y117000D02*
Y127000D01*
X78900D02*
X88900D01*
Y117000D02*
Y127000D01*
Y50800D02*
Y60800D01*
X78900Y50800D02*
X88900D01*
X38100D02*
X48100D01*
X38100D02*
Y60800D01*
D22*
X99700Y114300D02*
G03*
X99700Y114300I-3000J0D01*
G01*
M02*
