M48
;Layer_Color=9474304
;FILE_FORMAT=4:4
METRIC,LZ
;TYPE=PLATED
T1F00S00C0.1500
T2F00S00C0.2000
T3F00S00C1.0000
%
T01
X0004084Y0003263
X0004136Y0005002
X0005253Y0004988
X0005718Y000464
X0006148Y0005326
X0007267Y0003917
X0006358Y0002693
X0005877Y0002523
X000542Y0002679
X0008829Y0005204
T02
X0009387Y0010188
T03
X000254Y000381
Y000635
X000508
Y000889
X000762
Y000635
X001016
Y000889
Y000381
X000254Y000889
Y001143
X000508
X000762
X001016
M30
