M48
;Layer_Color=9474304
;FILE_FORMAT=4:4
METRIC,LZ
;TYPE=PLATED
T1F00S00C0.2000
T2F00S00C1.0000
;TYPE=NON_PLATED
T3F00S00C3.2000
%
T01
X0018455Y00165
X00203525Y00187524
Y00193224
X00199Y001985
X002101Y002085
X002375Y002035
Y002185
X002335Y002235
X002475Y002285
X00243Y002135
X002045Y00238
Y00244
X00199Y002365
X002101Y002585
X0020365Y0026865
Y0027435
X0020365Y0029865
Y0030435
X002101Y003235
X002661Y00341
X002711Y003453
X002761Y00341
X002811Y003453
X002866Y00341
X002916Y003453
X002976Y00341
X003026Y003453
X003116Y00341
X003166Y003453
X003216Y00341
X003145Y003735
X003161Y004002
X00286Y003988
Y004142
X00285Y004265
X002684Y004152
Y003998
X002158Y0039635
X003536Y003985
X003611Y00398
X003653Y00412
X0037665Y0040665
X003911Y00398
X004Y004063
Y004122
X004288Y004155
X004525Y004245
Y00405358
X004456Y003485
X0045385Y0031335
Y0030765
Y0026935
Y0026365
X004535Y0020285
X00449Y0019265
X0043165Y001585
X003911Y00164
X00376774Y00163574
X00371925Y00153024
X00356Y001482
X00351Y001525
X00336874Y00159626
X00321375Y00163074
Y00147674
X003061Y001597
X002561Y001525
X002511Y001482
X002461Y001525
X00344299Y0013675
X0018385Y002625
X003961Y003757
X0014Y00372
Y003665
X00138Y003575
Y003525
X001375Y003425
Y00337
X001325Y003025
Y002965
Y00284
Y002785
X0013Y002695
Y002645
Y002545
Y00249
X00139276Y00256776
X0014645Y00237
X001005Y002645
X00095Y002605
X000885Y002645
X00083Y002605
X0006395Y0026725
X0006495Y002284
X0007765
X0009035Y0020615
X0010305
Y001566
X0009035
X000905Y003485
X00096Y003525
X001025Y003485
X00108Y003525
X0010685Y00414
Y00423
X000825Y00414
X0007985Y00432
X0006015
X0014Y003905
Y003845
X0015567Y0056322
X0007492Y005641
X000569Y0061392
X000571Y0064808
X0013377Y0066327
X0015577
X0019852Y006688
X0021035Y00462
X002111Y00451
X002495Y004425
X00256Y00495
X002525Y005025
X003365Y0049
X003363Y0048415
X003415Y00477
X003375Y004705
X003453Y00464
X003373Y004402
Y00434
X003241Y004485
X0037715Y0044765
X003963Y004665
X0037687Y004858
X0041595
X0041613Y004469
X004343Y00434
X004473Y00439
X004556Y00464
X004557Y0047
X004748Y004575
X004845Y00435
X004712Y005083
X004654Y005082
X004557Y005099
X004557Y005037
X004338Y005175
X004419Y005306
X004157Y005259
X004077Y005355
X004076Y005469
X004255Y005477
X004298Y005528
X00437Y005595
X004167Y005602
X003855Y005408
X003838Y005256
X003899
X003777
X003722Y005207
X003638Y005175
X003588Y005205
X00373Y005363
X003433Y00495
X003931Y006093
X003986
X004041
X0044Y006039
X00438601Y00593748
X004594Y006314
X0046435Y0062645
X005036Y005902
X005197Y005905
Y005855
X005242Y00661
X005245Y006753
X004203
X0042Y00661
X004059Y006536
X004627Y005411
T02
X001778Y000249
X002032
X002286
X00254
Y000503
X002286
X002032
X001778
X00508Y000508
Y000762
Y001016
Y00127
Y001524
Y001778
Y002032
Y002286
X005085Y0026915
Y0029455
Y0031995
Y0034535
Y0037075
Y0039615
Y0042155
X000254Y004064
Y00381
Y003556
Y003302
Y003048
Y002794
Y00254
Y002286
Y001778
Y001524
Y00127
Y001016
Y000762
Y000508
X000762Y004572
X001016
Y004826
X000762
Y00508
X001016
Y005334
X000762
X001323
Y00508
Y004826
Y004572
X001577
Y004826
Y00508
Y005334
X001958Y00508
Y004826
X002217Y005672
X002471
X002725
X002979
X003233
X003487
Y005926
X003233
X002979
X002725
X002471
X002217
X005085Y0049775
Y0047235
Y0044695
T03
X000762Y000254
X003556
X000254Y005461
X00508Y005334
M30
