%FSLAX44Y44*%
%MOMM*%
G71*
G01*
G75*
G04 Layer_Physical_Order=4*
G04 Layer_Color=16711680*
%ADD10R,1.2000X0.8000*%
G04:AMPARAMS|DCode=11|XSize=0.6mm|YSize=0.5mm|CornerRadius=0.05mm|HoleSize=0mm|Usage=FLASHONLY|Rotation=180.000|XOffset=0mm|YOffset=0mm|HoleType=Round|Shape=RoundedRectangle|*
%AMROUNDEDRECTD11*
21,1,0.6000,0.4000,0,0,180.0*
21,1,0.5000,0.5000,0,0,180.0*
1,1,0.1000,-0.2500,0.2000*
1,1,0.1000,0.2500,0.2000*
1,1,0.1000,0.2500,-0.2000*
1,1,0.1000,-0.2500,-0.2000*
%
%ADD11ROUNDEDRECTD11*%
%ADD12C,0.1000*%
%ADD13C,0.0800*%
%ADD14C,0.2000*%
%ADD15C,0.0750*%
%ADD16R,1.5000X1.5000*%
%ADD17C,1.5000*%
%ADD18C,0.4500*%
%ADD19C,0.3500*%
%ADD20C,0.2000*%
%ADD21C,0.0500*%
D11*
X84690Y35790D02*
D03*
Y26790D02*
D03*
X46530Y34920D02*
D03*
Y43920D02*
D03*
D12*
X80290Y78150D02*
X85250Y83110D01*
Y95960D01*
X76200Y105010D02*
X85250Y95960D01*
X76200Y105010D02*
Y114300D01*
X74180Y34540D02*
X76200Y36560D01*
Y63500D01*
X66400Y88900D02*
X76200D01*
X68950Y34540D02*
X74180D01*
X101600Y38100D02*
Y42580D01*
X68950Y38040D02*
X71540D01*
X72670Y39170D01*
X73220Y78150D02*
X80290D01*
X66110Y71040D02*
X73220Y78150D01*
X63150Y85650D02*
X66400Y88900D01*
X63580Y26930D02*
X65450Y28800D01*
Y31040D01*
X50800Y104780D02*
Y114300D01*
Y104780D02*
X60760Y94820D01*
X63150Y59620D02*
Y85650D01*
Y59620D02*
X65450Y57320D01*
Y41540D02*
Y57320D01*
X66110Y59810D02*
Y71040D01*
Y59810D02*
X68950Y56970D01*
Y41540D02*
Y56970D01*
X60200Y43130D02*
Y44790D01*
X56490Y48500D02*
X60200Y44790D01*
X55010Y48500D02*
X56490D01*
X41830Y34920D02*
X46530D01*
X39640Y32730D02*
X41830Y34920D01*
X12000Y17660D02*
Y122950D01*
X114000Y17660D02*
Y122950D01*
X12000Y17660D02*
X114000D01*
X12000Y122950D02*
X114000D01*
D13*
X25400Y63500D02*
X33370D01*
X35390Y61480D01*
X68950Y31040D02*
X73670D01*
X78620Y35990D01*
Y46440D01*
X84220Y52040D01*
X88290D01*
X41360Y50020D02*
Y79460D01*
X50800Y88900D01*
X25400Y114300D02*
X50800Y88900D01*
X63700Y43130D02*
Y48220D01*
X62600Y49320D02*
X63700Y48220D01*
X62600Y49320D02*
Y52140D01*
X61480Y53260D02*
X62600Y52140D01*
X57990Y50800D02*
X61950Y46840D01*
X57990Y50800D02*
Y56020D01*
X60760Y58790D01*
Y94820D01*
X61950Y41540D02*
Y46840D01*
X49000Y49150D02*
Y51460D01*
Y49150D02*
X56610Y41540D01*
X58450D01*
X67200Y29450D02*
X68790Y27860D01*
X74930D01*
X82860Y35790D01*
X87610Y58130D02*
X92080Y53660D01*
X82860Y35790D02*
X84690D01*
X87610Y58130D02*
Y111380D01*
X90530Y114300D01*
X101600D01*
X84690Y35790D02*
Y42430D01*
X92080Y49820D01*
Y53660D01*
X84690Y26790D02*
X87690D01*
X90520Y29620D01*
Y43740D01*
X93720Y46940D01*
Y57130D01*
X90380Y60470D02*
X93720Y57130D01*
X90380Y60470D02*
Y98390D01*
X93870Y101880D01*
X61950Y29780D02*
Y31040D01*
X53340Y38040D02*
X58450D01*
X58770Y26600D02*
X61950Y29780D01*
X57075Y34540D02*
X58450D01*
X35390Y31190D02*
Y61480D01*
X25400Y38100D02*
X38360Y25140D01*
X47675D01*
X57075Y34540D01*
X35390Y31190D02*
X39140Y27440D01*
X46880D01*
X55730Y36290D01*
X41360Y50020D02*
X53340Y38040D01*
X58770Y25230D02*
Y26600D01*
D15*
X54960Y27550D02*
X58450Y31040D01*
D16*
X76200Y114300D02*
D03*
X101600D02*
D03*
X25400D02*
D03*
D17*
X50800D02*
D03*
X76200Y88900D02*
D03*
X50800D02*
D03*
X76200Y63500D02*
D03*
X50800D02*
D03*
X101600D02*
D03*
Y88900D02*
D03*
Y38100D02*
D03*
X25400Y63500D02*
D03*
Y88900D02*
D03*
Y38100D02*
D03*
D18*
X93870Y101880D02*
D03*
D19*
X40840Y32630D02*
D03*
X41360Y50020D02*
D03*
X49000Y51460D02*
D03*
X55010Y48500D02*
D03*
X61480Y53260D02*
D03*
X72670Y39170D02*
D03*
X88290Y52040D02*
D03*
X63580Y26930D02*
D03*
X54200Y26790D02*
D03*
X58770Y25230D02*
D03*
D20*
X68950Y31040D02*
D03*
Y34540D02*
D03*
Y38040D02*
D03*
Y41540D02*
D03*
X65450Y31040D02*
D03*
Y34540D02*
D03*
Y38040D02*
D03*
Y41540D02*
D03*
X61950Y31040D02*
D03*
Y34540D02*
D03*
Y38040D02*
D03*
Y41540D02*
D03*
X58450Y31040D02*
D03*
Y34540D02*
D03*
Y38040D02*
D03*
Y41540D02*
D03*
D21*
X60200Y36290D02*
X61950Y34540D01*
X60200Y39790D02*
Y43130D01*
Y39790D02*
X61950Y38040D01*
X63700Y39790D02*
Y43130D01*
Y39790D02*
X65450Y38040D01*
X67200Y29450D02*
Y32790D01*
X65450Y34540D02*
X67200Y32790D01*
X55730Y36290D02*
X60200D01*
M02*
